G04 EAGLE Gerber X2 export*
%TF.Part,Single*%
%TF.FileFunction,Copper,L1,Top,Mixed*%
%TF.FilePolarity,Positive*%
%TF.GenerationSoftware,Autodesk,EAGLE,8.7.0*%
%TF.CreationDate,2018-10-16T22:36:03Z*%
G75*
%MOMM*%
%FSLAX34Y34*%
%LPD*%
%AMOC8*
5,1,8,0,0,1.08239X$1,22.5*%
G01*
%ADD10P,2.089446X8X112.500000*%
%ADD11C,1.790700*%
%ADD12P,1.924489X8X292.500000*%
%ADD13C,1.778000*%
%ADD14P,1.732040X8X292.500000*%
%ADD15P,1.924489X8X112.500000*%
%ADD16P,1.732040X8X112.500000*%
%ADD17C,1.320800*%
%ADD18C,1.981200*%
%ADD19P,1.814519X8X22.500000*%
%ADD20R,1.508000X1.508000*%
%ADD21C,1.508000*%
%ADD22P,1.429621X8X112.500000*%
%ADD23P,1.429621X8X292.500000*%
%ADD24P,1.429621X8X22.500000*%
%ADD25C,1.016000*%
%ADD26C,0.756400*%
%ADD27C,0.508000*%


D10*
X660400Y215900D03*
X660400Y165100D03*
D11*
X59754Y253600D02*
X41847Y253600D01*
X41847Y203600D02*
X59754Y203600D01*
D12*
X152400Y533400D03*
D13*
X152400Y558800D03*
D14*
X203200Y558800D03*
X203200Y533400D03*
D15*
X152400Y469900D03*
D13*
X152400Y444500D03*
D16*
X203200Y444500D03*
X203200Y469900D03*
D11*
X59754Y355200D02*
X41847Y355200D01*
X41847Y305200D02*
X59754Y305200D01*
D17*
X399796Y342900D02*
X413004Y342900D01*
X336804Y342900D02*
X323596Y342900D01*
D10*
X660400Y114300D03*
D18*
X374650Y225044D02*
X374650Y244856D01*
X314960Y224536D02*
X314960Y204724D01*
X434340Y204724D02*
X434340Y224536D01*
X434340Y102616D02*
X434340Y82804D01*
X314960Y82804D02*
X314960Y102616D01*
D19*
X482600Y190500D03*
X508000Y190500D03*
X482600Y266700D03*
X508000Y266700D03*
X482600Y342900D03*
X508000Y342900D03*
D11*
X626047Y279800D02*
X643954Y279800D01*
X643954Y329800D02*
X626047Y329800D01*
D20*
X279400Y393700D03*
D21*
X304800Y393700D03*
X330200Y393700D03*
X355600Y393700D03*
X381000Y393700D03*
X406400Y393700D03*
X431800Y393700D03*
X457200Y393700D03*
X482600Y393700D03*
X508000Y393700D03*
X533400Y393700D03*
X558800Y393700D03*
X279400Y546100D03*
X304800Y546100D03*
X330200Y546100D03*
X355600Y546100D03*
X381000Y546100D03*
X406400Y546100D03*
X457200Y546100D03*
X482600Y546100D03*
X533400Y546100D03*
X558800Y546100D03*
X508000Y546100D03*
X431800Y546100D03*
X584200Y393700D03*
X609600Y393700D03*
X635000Y393700D03*
X584200Y546100D03*
X609600Y546100D03*
X635000Y546100D03*
D20*
X254000Y495300D03*
D21*
X279400Y495300D03*
X254000Y469900D03*
X279400Y469900D03*
X254000Y444500D03*
X279400Y444500D03*
D17*
X152400Y152400D02*
X139192Y152400D01*
X139192Y127000D02*
X152400Y127000D01*
X228600Y127000D02*
X241808Y127000D01*
X241808Y152400D02*
X228600Y152400D01*
X152400Y101600D02*
X139192Y101600D01*
X228600Y101600D02*
X241808Y101600D01*
X152400Y254000D02*
X139192Y254000D01*
X139192Y228600D02*
X152400Y228600D01*
X228600Y228600D02*
X241808Y228600D01*
X241808Y254000D02*
X228600Y254000D01*
X152400Y203200D02*
X139192Y203200D01*
X228600Y203200D02*
X241808Y203200D01*
X152400Y355600D02*
X139192Y355600D01*
X139192Y330200D02*
X152400Y330200D01*
X228600Y330200D02*
X241808Y330200D01*
X241808Y355600D02*
X228600Y355600D01*
X152400Y304800D02*
X139192Y304800D01*
X228600Y304800D02*
X241808Y304800D01*
D22*
X118110Y88900D03*
X118110Y165100D03*
X596900Y152400D03*
X596900Y228600D03*
X266700Y38100D03*
X266700Y114300D03*
X116840Y191770D03*
X116840Y267970D03*
X266700Y139700D03*
X266700Y215900D03*
X115570Y292100D03*
X115570Y368300D03*
X266700Y241300D03*
X266700Y317500D03*
D23*
X558800Y355600D03*
X558800Y279400D03*
D22*
X622300Y152400D03*
X622300Y228600D03*
X571500Y152400D03*
X571500Y228600D03*
D11*
X59754Y152000D02*
X41847Y152000D01*
X41847Y102000D02*
X59754Y102000D01*
D24*
X317500Y285750D03*
X342900Y285750D03*
X342900Y311150D03*
D17*
X475996Y114300D02*
X489204Y114300D01*
X489204Y88900D02*
X475996Y88900D01*
X552196Y88900D02*
X565404Y88900D01*
X565404Y114300D02*
X552196Y114300D01*
X489204Y63500D02*
X475996Y63500D01*
X475996Y38100D02*
X489204Y38100D01*
X552196Y63500D02*
X565404Y63500D01*
X565404Y38100D02*
X552196Y38100D01*
D11*
X59754Y557600D02*
X41847Y557600D01*
X41847Y507600D02*
X59754Y507600D01*
X59754Y457600D02*
X41847Y457600D01*
X41847Y407600D02*
X59754Y407600D01*
D25*
X391160Y327660D02*
X406400Y342900D01*
X391160Y327660D02*
X307340Y327660D01*
D26*
X307340Y327660D03*
X88900Y342900D03*
D25*
X88900Y444500D01*
X75800Y457600D02*
X50800Y457600D01*
X75800Y457600D02*
X88900Y444500D01*
X114300Y127000D02*
X152400Y127000D01*
X114300Y127000D02*
X88900Y152400D01*
X88900Y241300D01*
X88900Y342900D01*
X101600Y228600D02*
X152400Y228600D01*
X101600Y228600D02*
X88900Y241300D01*
X113030Y38100D02*
X266700Y38100D01*
X113030Y38100D02*
X88900Y62230D01*
X88900Y152400D01*
X266700Y139700D02*
X292100Y114300D01*
X292100Y63500D01*
X266700Y38100D01*
X292100Y215900D02*
X266700Y241300D01*
X292100Y215900D02*
X292100Y165100D01*
X266700Y139700D01*
D27*
X330200Y368300D02*
X355600Y393700D01*
X330200Y368300D02*
X304800Y368300D01*
X285750Y349250D01*
X285750Y285750D01*
D26*
X285750Y285750D03*
D25*
X266700Y38100D02*
X482600Y38100D01*
X508000Y342900D02*
X533400Y368300D01*
D26*
X533400Y368300D03*
X660400Y368300D03*
D25*
X679960Y348740D01*
X679960Y292100D01*
X679960Y127000D01*
X667260Y114300D01*
X660400Y114300D01*
X660400Y100637D01*
X612460Y52697D01*
X612460Y30800D01*
X596900Y15240D01*
X505460Y15240D01*
X482600Y38100D01*
X228600Y330200D02*
X201930Y330200D01*
X180340Y351790D01*
X180340Y548640D01*
X190500Y558800D01*
X203200Y558800D01*
X203200Y127000D02*
X228600Y127000D01*
X203200Y127000D02*
X180340Y149860D01*
X180340Y251460D01*
X180340Y351790D01*
X203200Y228600D02*
X228600Y228600D01*
X203200Y228600D02*
X180340Y251460D01*
D26*
X317500Y508000D03*
D27*
X304800Y520700D01*
X241300Y520700D01*
X203200Y558800D01*
D25*
X228600Y304800D02*
X254000Y304800D01*
X266700Y317500D01*
D26*
X355600Y355600D03*
D27*
X393700Y355600D01*
X431800Y393700D01*
X457200Y393700D02*
X457200Y317500D01*
D26*
X457200Y317500D03*
X457200Y152400D03*
D27*
X457200Y127000D01*
D26*
X457200Y127000D03*
X508000Y101600D03*
D27*
X457200Y101600D01*
X419100Y139700D02*
X419100Y266700D01*
X420370Y266700D01*
X447040Y293370D01*
D26*
X447040Y293370D03*
D27*
X419100Y139700D02*
X457200Y101600D01*
D25*
X254000Y101600D02*
X228600Y101600D01*
X254000Y101600D02*
X266700Y114300D01*
X254000Y203200D02*
X228600Y203200D01*
X254000Y203200D02*
X266700Y215900D01*
D26*
X368300Y368300D03*
D27*
X381000Y381000D01*
X393700Y381000D01*
X406400Y393700D01*
D26*
X533400Y317500D03*
D27*
X482600Y317500D01*
X469900Y330200D01*
X469900Y406400D01*
X457200Y419100D01*
X444500Y406400D01*
X444500Y340360D01*
X389890Y285750D01*
X342900Y285750D01*
X533400Y393700D02*
X558800Y368300D01*
X558800Y355600D01*
D26*
X393700Y266700D03*
D27*
X431800Y304800D01*
X558800Y304800D01*
D26*
X558800Y304800D03*
D27*
X381000Y228600D02*
X374650Y234950D01*
X381000Y228600D02*
X381000Y63500D01*
X393700Y50800D01*
X584200Y50800D01*
X635000Y101600D01*
X635000Y279800D01*
X622300Y152400D02*
X609600Y139700D01*
X508000Y139700D01*
X482600Y165100D01*
X482600Y190500D01*
X482600Y266700D02*
X571500Y177800D01*
X571500Y152400D01*
X596900Y152400D02*
X596900Y177800D01*
X520700Y254000D01*
X520700Y279400D01*
X508000Y292100D01*
X495300Y292100D01*
D26*
X495300Y292100D03*
D27*
X574040Y378460D02*
X558800Y393700D01*
X574040Y378460D02*
X574040Y279400D01*
X571500Y276860D01*
X571500Y228600D01*
X584200Y241300D02*
X596900Y228600D01*
X584200Y241300D02*
X584200Y393700D01*
M02*
