M48
;GenerationSoftware,Autodesk,EAGLE,8.7.0*%
;CreationDate,2018-10-16T22:36:03Z*%
FMAT,2
ICI,OFF
METRIC,TZ,000.000
T8C0.350
T7C0.813
T6C1.000
T5C1.016
T4C1.194
T3C1.321
T2C1.651
T1C4.000
%
G90
M71
T1
X64770Y3810
X65151Y50165
X3810Y3810
X5461Y61595
T2
X66040Y54610
X66040Y39370
X25400Y54610
X25400Y39370
T3
X37465Y23495
X31496Y21463
X43434Y21463
X43434Y9271
X31496Y9271
T4
X5080Y25360
X5080Y20360
X5080Y35520
X5080Y30520
X5080Y45760
X63500Y27980
X63500Y32980
X5080Y40760
X5080Y15200
X5080Y10200
X5080Y55760
X5080Y50760
T5
X66040Y21590
X66040Y16510
X66040Y11430
T6
X45720Y54610
X35560Y39370
X38100Y39370
X40640Y39370
X43180Y39370
X45720Y39370
X48260Y39370
X50800Y39370
X48260Y54610
X27940Y44450
X25400Y44450
X53340Y39370
X55880Y39370
X27940Y46990
X25400Y46990
X27940Y49530
X25400Y49530
X63500Y54610
X60960Y54610
X58420Y54610
X30480Y54610
X33020Y54610
X35560Y54610
X38100Y54610
X40640Y54610
X63500Y39370
X60960Y39370
X27940Y54610
X30480Y39370
X33020Y39370
X58420Y39370
X43180Y54610
X50800Y54610
X55880Y54610
X53340Y54610
X27940Y39370
T7
X20320Y44450
X40640Y34290
X33020Y34290
X48260Y19050
X50800Y19050
X48260Y26670
X50800Y26670
X48260Y34290
X50800Y34290
X20320Y46990
X15240Y15240
X15240Y12700
X22860Y12700
X22860Y15240
X15240Y10160
X22860Y10160
X15240Y25400
X15240Y22860
X22860Y22860
X22860Y25400
X15240Y20320
X22860Y20320
X15240Y35560
X15240Y33020
X22860Y33020
X22860Y35560
X15240Y30480
X22860Y30480
X15240Y53340
X11811Y16510
X59690Y15240
X59690Y22860
X26670Y3810
X26670Y11430
X11684Y19177
X11684Y26797
X26670Y13970
X26670Y21590
X11557Y29210
X11557Y36830
X26670Y24130
X26670Y31750
X55880Y35560
X55880Y27940
X62230Y15240
X62230Y22860
X11811Y8890
X57150Y22860
X15240Y55880
X20320Y55880
X31750Y28575
X34290Y28575
X34290Y31115
X48260Y11430
X48260Y8890
X55880Y8890
X55880Y11430
X48260Y6350
X48260Y3810
X55880Y6350
X55880Y3810
X20320Y53340
X15240Y46990
X15240Y44450
X57150Y15240
T8
X53340Y31750
X36830Y36830
X44704Y29337
X50800Y10160
X45720Y12700
X45720Y15240
X45720Y31750
X35560Y35560
X31750Y50800
X66040Y36830
X53340Y36830
X28575Y28575
X8890Y34290
X30734Y32766
X49530Y29210
X55880Y30480
X39370Y26670
M30