G04 EAGLE Gerber X2 export*
%TF.Part,Single*%
%TF.FileFunction,Legend,Bot,1*%
%TF.FilePolarity,Positive*%
%TF.GenerationSoftware,Autodesk,EAGLE,8.7.0*%
%TF.CreationDate,2018-10-16T22:36:03Z*%
G75*
%MOMM*%
%FSLAX34Y34*%
%LPD*%
%AMOC8*
5,1,8,0,0,1.08239X$1,22.5*%
G01*
%ADD10C,0.152400*%


D10*
X617022Y508762D02*
X617022Y525018D01*
X612507Y525018D02*
X621538Y525018D01*
X604000Y515084D02*
X599936Y515084D01*
X604000Y515084D02*
X604112Y515082D01*
X604223Y515076D01*
X604334Y515066D01*
X604445Y515053D01*
X604555Y515035D01*
X604664Y515013D01*
X604773Y514988D01*
X604881Y514959D01*
X604987Y514926D01*
X605093Y514889D01*
X605197Y514849D01*
X605299Y514805D01*
X605400Y514757D01*
X605499Y514706D01*
X605597Y514651D01*
X605692Y514593D01*
X605785Y514532D01*
X605876Y514467D01*
X605965Y514399D01*
X606051Y514328D01*
X606134Y514255D01*
X606215Y514178D01*
X606294Y514098D01*
X606369Y514016D01*
X606441Y513931D01*
X606511Y513844D01*
X606577Y513754D01*
X606640Y513662D01*
X606700Y513567D01*
X606756Y513471D01*
X606809Y513373D01*
X606858Y513273D01*
X606904Y513171D01*
X606946Y513068D01*
X606985Y512963D01*
X607020Y512857D01*
X607051Y512750D01*
X607078Y512642D01*
X607102Y512533D01*
X607121Y512423D01*
X607137Y512313D01*
X607149Y512202D01*
X607157Y512090D01*
X607161Y511979D01*
X607161Y511867D01*
X607157Y511756D01*
X607149Y511644D01*
X607137Y511533D01*
X607121Y511423D01*
X607102Y511313D01*
X607078Y511204D01*
X607051Y511096D01*
X607020Y510989D01*
X606985Y510883D01*
X606946Y510778D01*
X606904Y510675D01*
X606858Y510573D01*
X606809Y510473D01*
X606756Y510375D01*
X606700Y510279D01*
X606640Y510184D01*
X606577Y510092D01*
X606511Y510002D01*
X606441Y509915D01*
X606369Y509830D01*
X606294Y509748D01*
X606215Y509668D01*
X606134Y509591D01*
X606051Y509518D01*
X605965Y509447D01*
X605876Y509379D01*
X605785Y509314D01*
X605692Y509253D01*
X605597Y509195D01*
X605499Y509140D01*
X605400Y509089D01*
X605299Y509041D01*
X605197Y508997D01*
X605093Y508957D01*
X604987Y508920D01*
X604881Y508887D01*
X604773Y508858D01*
X604664Y508833D01*
X604555Y508811D01*
X604445Y508793D01*
X604334Y508780D01*
X604223Y508770D01*
X604112Y508764D01*
X604000Y508762D01*
X599936Y508762D01*
X599936Y516890D01*
X599937Y516890D02*
X599939Y516991D01*
X599945Y517092D01*
X599954Y517193D01*
X599967Y517294D01*
X599984Y517394D01*
X600005Y517493D01*
X600029Y517591D01*
X600057Y517688D01*
X600089Y517785D01*
X600124Y517880D01*
X600163Y517973D01*
X600205Y518065D01*
X600251Y518156D01*
X600300Y518245D01*
X600352Y518331D01*
X600408Y518416D01*
X600466Y518499D01*
X600528Y518579D01*
X600593Y518657D01*
X600660Y518733D01*
X600730Y518806D01*
X600803Y518876D01*
X600879Y518943D01*
X600957Y519008D01*
X601037Y519070D01*
X601120Y519128D01*
X601205Y519184D01*
X601292Y519236D01*
X601380Y519285D01*
X601471Y519331D01*
X601563Y519373D01*
X601656Y519412D01*
X601751Y519447D01*
X601848Y519479D01*
X601945Y519507D01*
X602043Y519531D01*
X602142Y519552D01*
X602242Y519569D01*
X602343Y519582D01*
X602444Y519591D01*
X602545Y519597D01*
X602646Y519599D01*
X606258Y519599D01*
X592414Y519599D02*
X592414Y508762D01*
X592414Y519599D02*
X586995Y519599D01*
X586995Y517793D01*
X582356Y519599D02*
X582356Y506053D01*
X582358Y505952D01*
X582364Y505851D01*
X582373Y505750D01*
X582386Y505649D01*
X582403Y505549D01*
X582424Y505450D01*
X582448Y505352D01*
X582476Y505255D01*
X582508Y505158D01*
X582543Y505063D01*
X582582Y504970D01*
X582624Y504878D01*
X582670Y504787D01*
X582719Y504699D01*
X582771Y504612D01*
X582827Y504527D01*
X582885Y504444D01*
X582947Y504364D01*
X583012Y504286D01*
X583079Y504210D01*
X583149Y504137D01*
X583222Y504067D01*
X583298Y504000D01*
X583376Y503935D01*
X583456Y503873D01*
X583539Y503815D01*
X583624Y503759D01*
X583711Y503707D01*
X583799Y503658D01*
X583890Y503612D01*
X583982Y503570D01*
X584075Y503531D01*
X584170Y503496D01*
X584267Y503464D01*
X584364Y503436D01*
X584462Y503412D01*
X584561Y503391D01*
X584661Y503374D01*
X584762Y503361D01*
X584863Y503352D01*
X584964Y503346D01*
X585065Y503344D01*
X585065Y503343D02*
X585968Y503343D01*
X582807Y524115D02*
X582807Y525018D01*
X581904Y525018D01*
X581904Y524115D01*
X582807Y524115D01*
X573116Y508762D02*
X568601Y508762D01*
X573116Y508762D02*
X573217Y508764D01*
X573318Y508770D01*
X573419Y508779D01*
X573520Y508792D01*
X573620Y508809D01*
X573719Y508830D01*
X573817Y508854D01*
X573914Y508882D01*
X574011Y508914D01*
X574106Y508949D01*
X574199Y508988D01*
X574291Y509030D01*
X574382Y509076D01*
X574471Y509125D01*
X574557Y509177D01*
X574642Y509233D01*
X574725Y509291D01*
X574805Y509353D01*
X574883Y509418D01*
X574959Y509485D01*
X575032Y509555D01*
X575102Y509628D01*
X575169Y509704D01*
X575234Y509782D01*
X575296Y509862D01*
X575354Y509945D01*
X575410Y510030D01*
X575462Y510117D01*
X575511Y510205D01*
X575557Y510296D01*
X575599Y510388D01*
X575638Y510481D01*
X575673Y510576D01*
X575705Y510673D01*
X575733Y510770D01*
X575757Y510868D01*
X575778Y510967D01*
X575795Y511067D01*
X575808Y511168D01*
X575817Y511269D01*
X575823Y511370D01*
X575825Y511471D01*
X575825Y515987D01*
X575823Y516106D01*
X575817Y516226D01*
X575807Y516345D01*
X575793Y516463D01*
X575776Y516582D01*
X575754Y516699D01*
X575729Y516816D01*
X575699Y516931D01*
X575666Y517046D01*
X575629Y517160D01*
X575589Y517272D01*
X575544Y517383D01*
X575496Y517492D01*
X575445Y517600D01*
X575390Y517706D01*
X575331Y517810D01*
X575269Y517912D01*
X575204Y518012D01*
X575135Y518110D01*
X575063Y518206D01*
X574988Y518299D01*
X574911Y518389D01*
X574830Y518477D01*
X574746Y518562D01*
X574659Y518644D01*
X574570Y518724D01*
X574478Y518800D01*
X574384Y518874D01*
X574287Y518944D01*
X574189Y519011D01*
X574088Y519075D01*
X573984Y519135D01*
X573879Y519192D01*
X573772Y519245D01*
X573664Y519295D01*
X573554Y519341D01*
X573442Y519383D01*
X573329Y519422D01*
X573215Y519457D01*
X573100Y519488D01*
X572983Y519516D01*
X572866Y519539D01*
X572749Y519559D01*
X572630Y519575D01*
X572511Y519587D01*
X572392Y519595D01*
X572273Y519599D01*
X572153Y519599D01*
X572034Y519595D01*
X571915Y519587D01*
X571796Y519575D01*
X571677Y519559D01*
X571560Y519539D01*
X571443Y519516D01*
X571326Y519488D01*
X571211Y519457D01*
X571097Y519422D01*
X570984Y519383D01*
X570872Y519341D01*
X570762Y519295D01*
X570654Y519245D01*
X570547Y519192D01*
X570442Y519135D01*
X570338Y519075D01*
X570237Y519011D01*
X570139Y518944D01*
X570042Y518874D01*
X569948Y518800D01*
X569856Y518724D01*
X569767Y518644D01*
X569680Y518562D01*
X569596Y518477D01*
X569515Y518389D01*
X569438Y518299D01*
X569363Y518206D01*
X569291Y518110D01*
X569222Y518012D01*
X569157Y517912D01*
X569095Y517810D01*
X569036Y517706D01*
X568981Y517600D01*
X568930Y517492D01*
X568882Y517383D01*
X568837Y517272D01*
X568797Y517160D01*
X568760Y517046D01*
X568727Y516931D01*
X568697Y516816D01*
X568672Y516699D01*
X568650Y516582D01*
X568633Y516463D01*
X568619Y516345D01*
X568609Y516226D01*
X568603Y516106D01*
X568601Y515987D01*
X568601Y514181D01*
X575825Y514181D01*
X563576Y519599D02*
X558157Y519599D01*
X561769Y525018D02*
X561769Y511471D01*
X561767Y511370D01*
X561761Y511269D01*
X561752Y511168D01*
X561739Y511067D01*
X561722Y510967D01*
X561701Y510868D01*
X561677Y510770D01*
X561649Y510673D01*
X561617Y510576D01*
X561582Y510481D01*
X561543Y510388D01*
X561501Y510296D01*
X561455Y510205D01*
X561406Y510117D01*
X561354Y510030D01*
X561298Y509945D01*
X561240Y509862D01*
X561178Y509782D01*
X561113Y509704D01*
X561046Y509628D01*
X560976Y509555D01*
X560903Y509485D01*
X560827Y509418D01*
X560749Y509353D01*
X560669Y509291D01*
X560586Y509233D01*
X560501Y509177D01*
X560415Y509125D01*
X560326Y509076D01*
X560235Y509030D01*
X560143Y508988D01*
X560050Y508949D01*
X559955Y508914D01*
X559858Y508882D01*
X559761Y508854D01*
X559663Y508830D01*
X559564Y508809D01*
X559464Y508792D01*
X559363Y508779D01*
X559262Y508770D01*
X559161Y508764D01*
X559060Y508762D01*
X558157Y508762D01*
X549291Y515084D02*
X545227Y515084D01*
X549291Y515084D02*
X549403Y515082D01*
X549514Y515076D01*
X549625Y515066D01*
X549736Y515053D01*
X549846Y515035D01*
X549955Y515013D01*
X550064Y514988D01*
X550172Y514959D01*
X550278Y514926D01*
X550384Y514889D01*
X550488Y514849D01*
X550590Y514805D01*
X550691Y514757D01*
X550790Y514706D01*
X550888Y514651D01*
X550983Y514593D01*
X551076Y514532D01*
X551167Y514467D01*
X551256Y514399D01*
X551342Y514328D01*
X551425Y514255D01*
X551506Y514178D01*
X551585Y514098D01*
X551660Y514016D01*
X551732Y513931D01*
X551802Y513844D01*
X551868Y513754D01*
X551931Y513662D01*
X551991Y513567D01*
X552047Y513471D01*
X552100Y513373D01*
X552149Y513273D01*
X552195Y513171D01*
X552237Y513068D01*
X552276Y512963D01*
X552311Y512857D01*
X552342Y512750D01*
X552369Y512642D01*
X552393Y512533D01*
X552412Y512423D01*
X552428Y512313D01*
X552440Y512202D01*
X552448Y512090D01*
X552452Y511979D01*
X552452Y511867D01*
X552448Y511756D01*
X552440Y511644D01*
X552428Y511533D01*
X552412Y511423D01*
X552393Y511313D01*
X552369Y511204D01*
X552342Y511096D01*
X552311Y510989D01*
X552276Y510883D01*
X552237Y510778D01*
X552195Y510675D01*
X552149Y510573D01*
X552100Y510473D01*
X552047Y510375D01*
X551991Y510279D01*
X551931Y510184D01*
X551868Y510092D01*
X551802Y510002D01*
X551732Y509915D01*
X551660Y509830D01*
X551585Y509748D01*
X551506Y509668D01*
X551425Y509591D01*
X551342Y509518D01*
X551256Y509447D01*
X551167Y509379D01*
X551076Y509314D01*
X550983Y509253D01*
X550888Y509195D01*
X550790Y509140D01*
X550691Y509089D01*
X550590Y509041D01*
X550488Y508997D01*
X550384Y508957D01*
X550278Y508920D01*
X550172Y508887D01*
X550064Y508858D01*
X549955Y508833D01*
X549846Y508811D01*
X549736Y508793D01*
X549625Y508780D01*
X549514Y508770D01*
X549403Y508764D01*
X549291Y508762D01*
X545227Y508762D01*
X545227Y516890D01*
X545229Y516991D01*
X545235Y517092D01*
X545244Y517193D01*
X545257Y517294D01*
X545274Y517394D01*
X545295Y517493D01*
X545319Y517591D01*
X545347Y517688D01*
X545379Y517785D01*
X545414Y517880D01*
X545453Y517973D01*
X545495Y518065D01*
X545541Y518156D01*
X545590Y518245D01*
X545642Y518331D01*
X545698Y518416D01*
X545756Y518499D01*
X545818Y518579D01*
X545883Y518657D01*
X545950Y518733D01*
X546020Y518806D01*
X546093Y518876D01*
X546169Y518943D01*
X546247Y519008D01*
X546327Y519070D01*
X546410Y519128D01*
X546495Y519184D01*
X546582Y519236D01*
X546670Y519285D01*
X546761Y519331D01*
X546853Y519373D01*
X546946Y519412D01*
X547041Y519447D01*
X547138Y519479D01*
X547235Y519507D01*
X547333Y519531D01*
X547432Y519552D01*
X547532Y519569D01*
X547633Y519582D01*
X547734Y519591D01*
X547835Y519597D01*
X547936Y519599D01*
X551549Y519599D01*
X522822Y525018D02*
X522822Y508762D01*
X527338Y508762D01*
X527439Y508764D01*
X527540Y508770D01*
X527641Y508779D01*
X527742Y508792D01*
X527842Y508809D01*
X527941Y508830D01*
X528039Y508854D01*
X528136Y508882D01*
X528233Y508914D01*
X528328Y508949D01*
X528421Y508988D01*
X528513Y509030D01*
X528604Y509076D01*
X528693Y509125D01*
X528779Y509177D01*
X528864Y509233D01*
X528947Y509291D01*
X529027Y509353D01*
X529105Y509418D01*
X529181Y509485D01*
X529254Y509555D01*
X529324Y509628D01*
X529391Y509704D01*
X529456Y509782D01*
X529518Y509862D01*
X529576Y509945D01*
X529632Y510030D01*
X529684Y510117D01*
X529733Y510205D01*
X529779Y510296D01*
X529821Y510388D01*
X529860Y510481D01*
X529895Y510576D01*
X529927Y510673D01*
X529955Y510770D01*
X529979Y510868D01*
X530000Y510967D01*
X530017Y511067D01*
X530030Y511168D01*
X530039Y511269D01*
X530045Y511370D01*
X530047Y511471D01*
X530047Y516890D01*
X530045Y516991D01*
X530039Y517092D01*
X530030Y517193D01*
X530017Y517294D01*
X530000Y517394D01*
X529979Y517493D01*
X529955Y517591D01*
X529927Y517688D01*
X529895Y517785D01*
X529860Y517880D01*
X529821Y517973D01*
X529779Y518065D01*
X529733Y518156D01*
X529684Y518245D01*
X529632Y518331D01*
X529576Y518416D01*
X529518Y518499D01*
X529456Y518579D01*
X529391Y518657D01*
X529324Y518733D01*
X529254Y518806D01*
X529181Y518876D01*
X529105Y518943D01*
X529027Y519008D01*
X528947Y519070D01*
X528864Y519128D01*
X528779Y519184D01*
X528693Y519236D01*
X528604Y519285D01*
X528513Y519331D01*
X528421Y519373D01*
X528328Y519412D01*
X528233Y519447D01*
X528136Y519479D01*
X528039Y519507D01*
X527941Y519531D01*
X527842Y519552D01*
X527742Y519569D01*
X527641Y519582D01*
X527540Y519591D01*
X527439Y519597D01*
X527338Y519599D01*
X522822Y519599D01*
X513196Y508762D02*
X508681Y508762D01*
X513196Y508762D02*
X513297Y508764D01*
X513398Y508770D01*
X513499Y508779D01*
X513600Y508792D01*
X513700Y508809D01*
X513799Y508830D01*
X513897Y508854D01*
X513994Y508882D01*
X514091Y508914D01*
X514186Y508949D01*
X514279Y508988D01*
X514371Y509030D01*
X514462Y509076D01*
X514551Y509125D01*
X514637Y509177D01*
X514722Y509233D01*
X514805Y509291D01*
X514885Y509353D01*
X514963Y509418D01*
X515039Y509485D01*
X515112Y509555D01*
X515182Y509628D01*
X515249Y509704D01*
X515314Y509782D01*
X515376Y509862D01*
X515434Y509945D01*
X515490Y510030D01*
X515542Y510117D01*
X515591Y510205D01*
X515637Y510296D01*
X515679Y510388D01*
X515718Y510481D01*
X515753Y510576D01*
X515785Y510673D01*
X515813Y510770D01*
X515837Y510868D01*
X515858Y510967D01*
X515875Y511067D01*
X515888Y511168D01*
X515897Y511269D01*
X515903Y511370D01*
X515905Y511471D01*
X515906Y511471D02*
X515906Y515987D01*
X515905Y515987D02*
X515903Y516106D01*
X515897Y516226D01*
X515887Y516345D01*
X515873Y516463D01*
X515856Y516582D01*
X515834Y516699D01*
X515809Y516816D01*
X515779Y516931D01*
X515746Y517046D01*
X515709Y517160D01*
X515669Y517272D01*
X515624Y517383D01*
X515576Y517492D01*
X515525Y517600D01*
X515470Y517706D01*
X515411Y517810D01*
X515349Y517912D01*
X515284Y518012D01*
X515215Y518110D01*
X515143Y518206D01*
X515068Y518299D01*
X514991Y518389D01*
X514910Y518477D01*
X514826Y518562D01*
X514739Y518644D01*
X514650Y518724D01*
X514558Y518800D01*
X514464Y518874D01*
X514367Y518944D01*
X514269Y519011D01*
X514168Y519075D01*
X514064Y519135D01*
X513959Y519192D01*
X513852Y519245D01*
X513744Y519295D01*
X513634Y519341D01*
X513522Y519383D01*
X513409Y519422D01*
X513295Y519457D01*
X513180Y519488D01*
X513063Y519516D01*
X512946Y519539D01*
X512829Y519559D01*
X512710Y519575D01*
X512591Y519587D01*
X512472Y519595D01*
X512353Y519599D01*
X512233Y519599D01*
X512114Y519595D01*
X511995Y519587D01*
X511876Y519575D01*
X511757Y519559D01*
X511640Y519539D01*
X511523Y519516D01*
X511406Y519488D01*
X511291Y519457D01*
X511177Y519422D01*
X511064Y519383D01*
X510952Y519341D01*
X510842Y519295D01*
X510734Y519245D01*
X510627Y519192D01*
X510522Y519135D01*
X510418Y519075D01*
X510317Y519011D01*
X510219Y518944D01*
X510122Y518874D01*
X510028Y518800D01*
X509936Y518724D01*
X509847Y518644D01*
X509760Y518562D01*
X509676Y518477D01*
X509595Y518389D01*
X509518Y518299D01*
X509443Y518206D01*
X509371Y518110D01*
X509302Y518012D01*
X509237Y517912D01*
X509175Y517810D01*
X509116Y517706D01*
X509061Y517600D01*
X509010Y517492D01*
X508962Y517383D01*
X508917Y517272D01*
X508877Y517160D01*
X508840Y517046D01*
X508807Y516931D01*
X508777Y516816D01*
X508752Y516699D01*
X508730Y516582D01*
X508713Y516463D01*
X508699Y516345D01*
X508689Y516226D01*
X508683Y516106D01*
X508681Y515987D01*
X508681Y514181D01*
X515906Y514181D01*
X494057Y508762D02*
X494057Y519599D01*
X494508Y524115D02*
X494508Y525018D01*
X493605Y525018D01*
X493605Y524115D01*
X494508Y524115D01*
X487249Y519599D02*
X487249Y508762D01*
X487249Y519599D02*
X482733Y519599D01*
X482629Y519597D01*
X482526Y519591D01*
X482422Y519581D01*
X482319Y519567D01*
X482217Y519549D01*
X482116Y519528D01*
X482015Y519502D01*
X481916Y519473D01*
X481817Y519440D01*
X481720Y519403D01*
X481625Y519362D01*
X481531Y519318D01*
X481439Y519270D01*
X481349Y519219D01*
X481260Y519164D01*
X481174Y519106D01*
X481091Y519044D01*
X481009Y518980D01*
X480931Y518912D01*
X480855Y518842D01*
X480781Y518769D01*
X480711Y518692D01*
X480643Y518614D01*
X480579Y518532D01*
X480517Y518449D01*
X480459Y518363D01*
X480404Y518274D01*
X480353Y518184D01*
X480305Y518092D01*
X480261Y517998D01*
X480220Y517903D01*
X480183Y517806D01*
X480150Y517707D01*
X480121Y517608D01*
X480095Y517507D01*
X480074Y517406D01*
X480056Y517304D01*
X480042Y517201D01*
X480032Y517097D01*
X480026Y516994D01*
X480024Y516890D01*
X480024Y508762D01*
X474478Y519599D02*
X469059Y519599D01*
X472672Y525018D02*
X472672Y511471D01*
X472671Y511471D02*
X472669Y511370D01*
X472663Y511269D01*
X472654Y511168D01*
X472641Y511067D01*
X472624Y510967D01*
X472603Y510868D01*
X472579Y510770D01*
X472551Y510673D01*
X472519Y510576D01*
X472484Y510481D01*
X472445Y510388D01*
X472403Y510296D01*
X472357Y510205D01*
X472308Y510117D01*
X472256Y510030D01*
X472200Y509945D01*
X472142Y509862D01*
X472080Y509782D01*
X472015Y509704D01*
X471948Y509628D01*
X471878Y509555D01*
X471805Y509485D01*
X471729Y509418D01*
X471651Y509353D01*
X471571Y509291D01*
X471488Y509233D01*
X471403Y509177D01*
X471317Y509125D01*
X471228Y509076D01*
X471137Y509030D01*
X471045Y508988D01*
X470952Y508949D01*
X470857Y508914D01*
X470760Y508882D01*
X470663Y508854D01*
X470565Y508830D01*
X470466Y508809D01*
X470366Y508792D01*
X470265Y508779D01*
X470164Y508770D01*
X470063Y508764D01*
X469962Y508762D01*
X469059Y508762D01*
X460571Y508762D02*
X456056Y508762D01*
X460571Y508762D02*
X460672Y508764D01*
X460773Y508770D01*
X460874Y508779D01*
X460975Y508792D01*
X461075Y508809D01*
X461174Y508830D01*
X461272Y508854D01*
X461369Y508882D01*
X461466Y508914D01*
X461561Y508949D01*
X461654Y508988D01*
X461746Y509030D01*
X461837Y509076D01*
X461926Y509125D01*
X462012Y509177D01*
X462097Y509233D01*
X462180Y509291D01*
X462260Y509353D01*
X462338Y509418D01*
X462414Y509485D01*
X462487Y509555D01*
X462557Y509628D01*
X462624Y509704D01*
X462689Y509782D01*
X462751Y509862D01*
X462809Y509945D01*
X462865Y510030D01*
X462917Y510117D01*
X462966Y510205D01*
X463012Y510296D01*
X463054Y510388D01*
X463093Y510481D01*
X463128Y510576D01*
X463160Y510673D01*
X463188Y510770D01*
X463212Y510868D01*
X463233Y510967D01*
X463250Y511067D01*
X463263Y511168D01*
X463272Y511269D01*
X463278Y511370D01*
X463280Y511471D01*
X463281Y511471D02*
X463281Y515987D01*
X463280Y515987D02*
X463278Y516106D01*
X463272Y516226D01*
X463262Y516345D01*
X463248Y516463D01*
X463231Y516582D01*
X463209Y516699D01*
X463184Y516816D01*
X463154Y516931D01*
X463121Y517046D01*
X463084Y517160D01*
X463044Y517272D01*
X462999Y517383D01*
X462951Y517492D01*
X462900Y517600D01*
X462845Y517706D01*
X462786Y517810D01*
X462724Y517912D01*
X462659Y518012D01*
X462590Y518110D01*
X462518Y518206D01*
X462443Y518299D01*
X462366Y518389D01*
X462285Y518477D01*
X462201Y518562D01*
X462114Y518644D01*
X462025Y518724D01*
X461933Y518800D01*
X461839Y518874D01*
X461742Y518944D01*
X461644Y519011D01*
X461543Y519075D01*
X461439Y519135D01*
X461334Y519192D01*
X461227Y519245D01*
X461119Y519295D01*
X461009Y519341D01*
X460897Y519383D01*
X460784Y519422D01*
X460670Y519457D01*
X460555Y519488D01*
X460438Y519516D01*
X460321Y519539D01*
X460204Y519559D01*
X460085Y519575D01*
X459966Y519587D01*
X459847Y519595D01*
X459728Y519599D01*
X459608Y519599D01*
X459489Y519595D01*
X459370Y519587D01*
X459251Y519575D01*
X459132Y519559D01*
X459015Y519539D01*
X458898Y519516D01*
X458781Y519488D01*
X458666Y519457D01*
X458552Y519422D01*
X458439Y519383D01*
X458327Y519341D01*
X458217Y519295D01*
X458109Y519245D01*
X458002Y519192D01*
X457897Y519135D01*
X457793Y519075D01*
X457692Y519011D01*
X457594Y518944D01*
X457497Y518874D01*
X457403Y518800D01*
X457311Y518724D01*
X457222Y518644D01*
X457135Y518562D01*
X457051Y518477D01*
X456970Y518389D01*
X456893Y518299D01*
X456818Y518206D01*
X456746Y518110D01*
X456677Y518012D01*
X456612Y517912D01*
X456550Y517810D01*
X456491Y517706D01*
X456436Y517600D01*
X456385Y517492D01*
X456337Y517383D01*
X456292Y517272D01*
X456252Y517160D01*
X456215Y517046D01*
X456182Y516931D01*
X456152Y516816D01*
X456127Y516699D01*
X456105Y516582D01*
X456088Y516463D01*
X456074Y516345D01*
X456064Y516226D01*
X456058Y516106D01*
X456056Y515987D01*
X456056Y514181D01*
X463281Y514181D01*
X449128Y508762D02*
X449128Y519599D01*
X443709Y519599D01*
X443709Y517793D01*
X437904Y522309D02*
X437904Y508762D01*
X437904Y522309D02*
X437902Y522410D01*
X437896Y522511D01*
X437887Y522612D01*
X437874Y522713D01*
X437857Y522813D01*
X437836Y522912D01*
X437812Y523010D01*
X437784Y523107D01*
X437752Y523204D01*
X437717Y523299D01*
X437678Y523392D01*
X437636Y523484D01*
X437590Y523575D01*
X437541Y523664D01*
X437489Y523750D01*
X437433Y523835D01*
X437375Y523918D01*
X437313Y523998D01*
X437248Y524076D01*
X437181Y524152D01*
X437111Y524225D01*
X437038Y524295D01*
X436962Y524362D01*
X436884Y524427D01*
X436804Y524489D01*
X436721Y524547D01*
X436636Y524603D01*
X436550Y524655D01*
X436461Y524704D01*
X436370Y524750D01*
X436278Y524792D01*
X436185Y524831D01*
X436090Y524866D01*
X435993Y524898D01*
X435896Y524926D01*
X435798Y524950D01*
X435699Y524971D01*
X435599Y524988D01*
X435498Y525001D01*
X435397Y525010D01*
X435296Y525016D01*
X435195Y525018D01*
X434292Y525018D01*
X434292Y519599D02*
X439710Y519599D01*
X426847Y515084D02*
X422783Y515084D01*
X426847Y515084D02*
X426959Y515082D01*
X427070Y515076D01*
X427181Y515066D01*
X427292Y515053D01*
X427402Y515035D01*
X427511Y515013D01*
X427620Y514988D01*
X427728Y514959D01*
X427834Y514926D01*
X427940Y514889D01*
X428044Y514849D01*
X428146Y514805D01*
X428247Y514757D01*
X428346Y514706D01*
X428444Y514651D01*
X428539Y514593D01*
X428632Y514532D01*
X428723Y514467D01*
X428812Y514399D01*
X428898Y514328D01*
X428981Y514255D01*
X429062Y514178D01*
X429141Y514098D01*
X429216Y514016D01*
X429288Y513931D01*
X429358Y513844D01*
X429424Y513754D01*
X429487Y513662D01*
X429547Y513567D01*
X429603Y513471D01*
X429656Y513373D01*
X429705Y513273D01*
X429751Y513171D01*
X429793Y513068D01*
X429832Y512963D01*
X429867Y512857D01*
X429898Y512750D01*
X429925Y512642D01*
X429949Y512533D01*
X429968Y512423D01*
X429984Y512313D01*
X429996Y512202D01*
X430004Y512090D01*
X430008Y511979D01*
X430008Y511867D01*
X430004Y511756D01*
X429996Y511644D01*
X429984Y511533D01*
X429968Y511423D01*
X429949Y511313D01*
X429925Y511204D01*
X429898Y511096D01*
X429867Y510989D01*
X429832Y510883D01*
X429793Y510778D01*
X429751Y510675D01*
X429705Y510573D01*
X429656Y510473D01*
X429603Y510375D01*
X429547Y510279D01*
X429487Y510184D01*
X429424Y510092D01*
X429358Y510002D01*
X429288Y509915D01*
X429216Y509830D01*
X429141Y509748D01*
X429062Y509668D01*
X428981Y509591D01*
X428898Y509518D01*
X428812Y509447D01*
X428723Y509379D01*
X428632Y509314D01*
X428539Y509253D01*
X428444Y509195D01*
X428346Y509140D01*
X428247Y509089D01*
X428146Y509041D01*
X428044Y508997D01*
X427940Y508957D01*
X427834Y508920D01*
X427728Y508887D01*
X427620Y508858D01*
X427511Y508833D01*
X427402Y508811D01*
X427292Y508793D01*
X427181Y508780D01*
X427070Y508770D01*
X426959Y508764D01*
X426847Y508762D01*
X422783Y508762D01*
X422783Y516890D01*
X422785Y516991D01*
X422791Y517092D01*
X422800Y517193D01*
X422813Y517294D01*
X422830Y517394D01*
X422851Y517493D01*
X422875Y517591D01*
X422903Y517688D01*
X422935Y517785D01*
X422970Y517880D01*
X423009Y517973D01*
X423051Y518065D01*
X423097Y518156D01*
X423146Y518245D01*
X423198Y518331D01*
X423254Y518416D01*
X423312Y518499D01*
X423374Y518579D01*
X423439Y518657D01*
X423506Y518733D01*
X423576Y518806D01*
X423649Y518876D01*
X423725Y518943D01*
X423803Y519008D01*
X423883Y519070D01*
X423966Y519128D01*
X424051Y519184D01*
X424138Y519236D01*
X424226Y519285D01*
X424317Y519331D01*
X424409Y519373D01*
X424502Y519412D01*
X424597Y519447D01*
X424694Y519479D01*
X424791Y519507D01*
X424889Y519531D01*
X424988Y519552D01*
X425088Y519569D01*
X425189Y519582D01*
X425290Y519591D01*
X425391Y519597D01*
X425492Y519599D01*
X429104Y519599D01*
X416387Y519599D02*
X409162Y519599D01*
X416387Y508762D01*
X409162Y508762D01*
X392315Y508762D02*
X387800Y508762D01*
X392315Y508762D02*
X392416Y508764D01*
X392517Y508770D01*
X392618Y508779D01*
X392719Y508792D01*
X392819Y508809D01*
X392918Y508830D01*
X393016Y508854D01*
X393113Y508882D01*
X393210Y508914D01*
X393305Y508949D01*
X393398Y508988D01*
X393490Y509030D01*
X393581Y509076D01*
X393670Y509125D01*
X393756Y509177D01*
X393841Y509233D01*
X393924Y509291D01*
X394004Y509353D01*
X394082Y509418D01*
X394158Y509485D01*
X394231Y509555D01*
X394301Y509628D01*
X394368Y509704D01*
X394433Y509782D01*
X394495Y509862D01*
X394553Y509945D01*
X394609Y510030D01*
X394661Y510117D01*
X394710Y510205D01*
X394756Y510296D01*
X394798Y510388D01*
X394837Y510481D01*
X394872Y510576D01*
X394904Y510673D01*
X394932Y510770D01*
X394956Y510868D01*
X394977Y510967D01*
X394994Y511067D01*
X395007Y511168D01*
X395016Y511269D01*
X395022Y511370D01*
X395024Y511471D01*
X395024Y515987D01*
X395022Y516106D01*
X395016Y516226D01*
X395006Y516345D01*
X394992Y516463D01*
X394975Y516582D01*
X394953Y516699D01*
X394928Y516816D01*
X394898Y516931D01*
X394865Y517046D01*
X394828Y517160D01*
X394788Y517272D01*
X394743Y517383D01*
X394695Y517492D01*
X394644Y517600D01*
X394589Y517706D01*
X394530Y517810D01*
X394468Y517912D01*
X394403Y518012D01*
X394334Y518110D01*
X394262Y518206D01*
X394187Y518299D01*
X394110Y518389D01*
X394029Y518477D01*
X393945Y518562D01*
X393858Y518644D01*
X393769Y518724D01*
X393677Y518800D01*
X393583Y518874D01*
X393486Y518944D01*
X393388Y519011D01*
X393287Y519075D01*
X393183Y519135D01*
X393078Y519192D01*
X392971Y519245D01*
X392863Y519295D01*
X392753Y519341D01*
X392641Y519383D01*
X392528Y519422D01*
X392414Y519457D01*
X392299Y519488D01*
X392182Y519516D01*
X392065Y519539D01*
X391948Y519559D01*
X391829Y519575D01*
X391710Y519587D01*
X391591Y519595D01*
X391472Y519599D01*
X391352Y519599D01*
X391233Y519595D01*
X391114Y519587D01*
X390995Y519575D01*
X390876Y519559D01*
X390759Y519539D01*
X390642Y519516D01*
X390525Y519488D01*
X390410Y519457D01*
X390296Y519422D01*
X390183Y519383D01*
X390071Y519341D01*
X389961Y519295D01*
X389853Y519245D01*
X389746Y519192D01*
X389641Y519135D01*
X389537Y519075D01*
X389436Y519011D01*
X389338Y518944D01*
X389241Y518874D01*
X389147Y518800D01*
X389055Y518724D01*
X388966Y518644D01*
X388879Y518562D01*
X388795Y518477D01*
X388714Y518389D01*
X388637Y518299D01*
X388562Y518206D01*
X388490Y518110D01*
X388421Y518012D01*
X388356Y517912D01*
X388294Y517810D01*
X388235Y517706D01*
X388180Y517600D01*
X388129Y517492D01*
X388081Y517383D01*
X388036Y517272D01*
X387996Y517160D01*
X387959Y517046D01*
X387926Y516931D01*
X387896Y516816D01*
X387871Y516699D01*
X387849Y516582D01*
X387832Y516463D01*
X387818Y516345D01*
X387808Y516226D01*
X387802Y516106D01*
X387800Y515987D01*
X387800Y514181D01*
X395024Y514181D01*
X381998Y508762D02*
X374774Y519599D01*
X381998Y519599D02*
X374774Y508762D01*
X368378Y503343D02*
X368378Y519599D01*
X363863Y519599D01*
X363759Y519597D01*
X363656Y519591D01*
X363552Y519581D01*
X363449Y519567D01*
X363347Y519549D01*
X363246Y519528D01*
X363145Y519502D01*
X363046Y519473D01*
X362947Y519440D01*
X362850Y519403D01*
X362755Y519362D01*
X362661Y519318D01*
X362569Y519270D01*
X362479Y519219D01*
X362390Y519164D01*
X362304Y519106D01*
X362221Y519044D01*
X362139Y518980D01*
X362061Y518912D01*
X361985Y518842D01*
X361911Y518769D01*
X361841Y518692D01*
X361773Y518614D01*
X361709Y518532D01*
X361647Y518449D01*
X361589Y518363D01*
X361534Y518274D01*
X361483Y518184D01*
X361435Y518092D01*
X361391Y517998D01*
X361350Y517903D01*
X361313Y517806D01*
X361280Y517707D01*
X361251Y517608D01*
X361225Y517507D01*
X361204Y517406D01*
X361186Y517304D01*
X361172Y517201D01*
X361162Y517097D01*
X361156Y516994D01*
X361154Y516890D01*
X361153Y516890D02*
X361153Y511471D01*
X361154Y511471D02*
X361156Y511370D01*
X361162Y511269D01*
X361171Y511168D01*
X361184Y511067D01*
X361201Y510967D01*
X361222Y510868D01*
X361246Y510770D01*
X361274Y510673D01*
X361306Y510576D01*
X361341Y510481D01*
X361380Y510388D01*
X361422Y510296D01*
X361468Y510205D01*
X361517Y510116D01*
X361569Y510030D01*
X361625Y509945D01*
X361683Y509862D01*
X361745Y509782D01*
X361810Y509704D01*
X361877Y509628D01*
X361947Y509555D01*
X362020Y509485D01*
X362096Y509418D01*
X362174Y509353D01*
X362254Y509291D01*
X362337Y509233D01*
X362422Y509177D01*
X362509Y509125D01*
X362597Y509076D01*
X362688Y509030D01*
X362780Y508988D01*
X362873Y508949D01*
X362968Y508914D01*
X363065Y508882D01*
X363162Y508854D01*
X363260Y508830D01*
X363359Y508809D01*
X363459Y508792D01*
X363560Y508779D01*
X363661Y508770D01*
X363762Y508764D01*
X363863Y508762D01*
X368378Y508762D01*
X352195Y508762D02*
X347680Y508762D01*
X352195Y508762D02*
X352296Y508764D01*
X352397Y508770D01*
X352498Y508779D01*
X352599Y508792D01*
X352699Y508809D01*
X352798Y508830D01*
X352896Y508854D01*
X352993Y508882D01*
X353090Y508914D01*
X353185Y508949D01*
X353278Y508988D01*
X353370Y509030D01*
X353461Y509076D01*
X353550Y509125D01*
X353636Y509177D01*
X353721Y509233D01*
X353804Y509291D01*
X353884Y509353D01*
X353962Y509418D01*
X354038Y509485D01*
X354111Y509555D01*
X354181Y509628D01*
X354248Y509704D01*
X354313Y509782D01*
X354375Y509862D01*
X354433Y509945D01*
X354489Y510030D01*
X354541Y510117D01*
X354590Y510205D01*
X354636Y510296D01*
X354678Y510388D01*
X354717Y510481D01*
X354752Y510576D01*
X354784Y510673D01*
X354812Y510770D01*
X354836Y510868D01*
X354857Y510967D01*
X354874Y511067D01*
X354887Y511168D01*
X354896Y511269D01*
X354902Y511370D01*
X354904Y511471D01*
X354904Y515987D01*
X354902Y516106D01*
X354896Y516226D01*
X354886Y516345D01*
X354872Y516463D01*
X354855Y516582D01*
X354833Y516699D01*
X354808Y516816D01*
X354778Y516931D01*
X354745Y517046D01*
X354708Y517160D01*
X354668Y517272D01*
X354623Y517383D01*
X354575Y517492D01*
X354524Y517600D01*
X354469Y517706D01*
X354410Y517810D01*
X354348Y517912D01*
X354283Y518012D01*
X354214Y518110D01*
X354142Y518206D01*
X354067Y518299D01*
X353990Y518389D01*
X353909Y518477D01*
X353825Y518562D01*
X353738Y518644D01*
X353649Y518724D01*
X353557Y518800D01*
X353463Y518874D01*
X353366Y518944D01*
X353268Y519011D01*
X353167Y519075D01*
X353063Y519135D01*
X352958Y519192D01*
X352851Y519245D01*
X352743Y519295D01*
X352633Y519341D01*
X352521Y519383D01*
X352408Y519422D01*
X352294Y519457D01*
X352179Y519488D01*
X352062Y519516D01*
X351945Y519539D01*
X351828Y519559D01*
X351709Y519575D01*
X351590Y519587D01*
X351471Y519595D01*
X351352Y519599D01*
X351232Y519599D01*
X351113Y519595D01*
X350994Y519587D01*
X350875Y519575D01*
X350756Y519559D01*
X350639Y519539D01*
X350522Y519516D01*
X350405Y519488D01*
X350290Y519457D01*
X350176Y519422D01*
X350063Y519383D01*
X349951Y519341D01*
X349841Y519295D01*
X349733Y519245D01*
X349626Y519192D01*
X349521Y519135D01*
X349417Y519075D01*
X349316Y519011D01*
X349218Y518944D01*
X349121Y518874D01*
X349027Y518800D01*
X348935Y518724D01*
X348846Y518644D01*
X348759Y518562D01*
X348675Y518477D01*
X348594Y518389D01*
X348517Y518299D01*
X348442Y518206D01*
X348370Y518110D01*
X348301Y518012D01*
X348236Y517912D01*
X348174Y517810D01*
X348115Y517706D01*
X348060Y517600D01*
X348009Y517492D01*
X347961Y517383D01*
X347916Y517272D01*
X347876Y517160D01*
X347839Y517046D01*
X347806Y516931D01*
X347776Y516816D01*
X347751Y516699D01*
X347729Y516582D01*
X347712Y516463D01*
X347698Y516345D01*
X347688Y516226D01*
X347682Y516106D01*
X347680Y515987D01*
X347680Y514181D01*
X354904Y514181D01*
X334206Y508762D02*
X334206Y525018D01*
X334206Y508762D02*
X338721Y508762D01*
X338822Y508764D01*
X338923Y508770D01*
X339024Y508779D01*
X339125Y508792D01*
X339225Y508809D01*
X339324Y508830D01*
X339422Y508854D01*
X339519Y508882D01*
X339616Y508914D01*
X339711Y508949D01*
X339804Y508988D01*
X339896Y509030D01*
X339987Y509076D01*
X340076Y509125D01*
X340162Y509177D01*
X340247Y509233D01*
X340330Y509291D01*
X340410Y509353D01*
X340488Y509418D01*
X340564Y509485D01*
X340637Y509555D01*
X340707Y509628D01*
X340774Y509704D01*
X340839Y509782D01*
X340901Y509862D01*
X340959Y509945D01*
X341015Y510030D01*
X341067Y510117D01*
X341116Y510205D01*
X341162Y510296D01*
X341204Y510388D01*
X341243Y510481D01*
X341278Y510576D01*
X341310Y510673D01*
X341338Y510770D01*
X341362Y510868D01*
X341383Y510967D01*
X341400Y511067D01*
X341413Y511168D01*
X341422Y511269D01*
X341428Y511370D01*
X341430Y511471D01*
X341431Y511471D02*
X341431Y516890D01*
X341430Y516890D02*
X341428Y516991D01*
X341422Y517092D01*
X341413Y517193D01*
X341400Y517294D01*
X341383Y517394D01*
X341362Y517493D01*
X341338Y517591D01*
X341310Y517688D01*
X341278Y517785D01*
X341243Y517880D01*
X341204Y517973D01*
X341162Y518065D01*
X341116Y518156D01*
X341067Y518245D01*
X341015Y518331D01*
X340959Y518416D01*
X340901Y518499D01*
X340839Y518579D01*
X340774Y518657D01*
X340707Y518733D01*
X340637Y518806D01*
X340564Y518876D01*
X340488Y518943D01*
X340410Y519008D01*
X340330Y519070D01*
X340247Y519128D01*
X340162Y519184D01*
X340076Y519236D01*
X339987Y519285D01*
X339896Y519331D01*
X339804Y519373D01*
X339711Y519412D01*
X339616Y519447D01*
X339519Y519479D01*
X339422Y519507D01*
X339324Y519531D01*
X339225Y519552D01*
X339125Y519569D01*
X339024Y519582D01*
X338923Y519591D01*
X338822Y519597D01*
X338721Y519599D01*
X334206Y519599D01*
X327324Y519599D02*
X327324Y508762D01*
X327776Y524115D02*
X327776Y525018D01*
X326873Y525018D01*
X326873Y524115D01*
X327776Y524115D01*
X313885Y525018D02*
X313885Y508762D01*
X318401Y508762D01*
X318502Y508764D01*
X318603Y508770D01*
X318704Y508779D01*
X318805Y508792D01*
X318905Y508809D01*
X319004Y508830D01*
X319102Y508854D01*
X319199Y508882D01*
X319296Y508914D01*
X319391Y508949D01*
X319484Y508988D01*
X319576Y509030D01*
X319667Y509076D01*
X319756Y509125D01*
X319842Y509177D01*
X319927Y509233D01*
X320010Y509291D01*
X320090Y509353D01*
X320168Y509418D01*
X320244Y509485D01*
X320317Y509555D01*
X320387Y509628D01*
X320454Y509704D01*
X320519Y509782D01*
X320581Y509862D01*
X320639Y509945D01*
X320695Y510030D01*
X320747Y510117D01*
X320796Y510205D01*
X320842Y510296D01*
X320884Y510388D01*
X320923Y510481D01*
X320958Y510576D01*
X320990Y510673D01*
X321018Y510770D01*
X321042Y510868D01*
X321063Y510967D01*
X321080Y511067D01*
X321093Y511168D01*
X321102Y511269D01*
X321108Y511370D01*
X321110Y511471D01*
X321110Y516890D01*
X321108Y516991D01*
X321102Y517092D01*
X321093Y517193D01*
X321080Y517294D01*
X321063Y517394D01*
X321042Y517493D01*
X321018Y517591D01*
X320990Y517688D01*
X320958Y517785D01*
X320923Y517880D01*
X320884Y517973D01*
X320842Y518065D01*
X320796Y518156D01*
X320747Y518245D01*
X320695Y518331D01*
X320639Y518416D01*
X320581Y518499D01*
X320519Y518579D01*
X320454Y518657D01*
X320387Y518733D01*
X320317Y518806D01*
X320244Y518876D01*
X320168Y518943D01*
X320090Y519008D01*
X320010Y519070D01*
X319927Y519128D01*
X319842Y519184D01*
X319756Y519236D01*
X319667Y519285D01*
X319576Y519331D01*
X319484Y519373D01*
X319391Y519412D01*
X319296Y519447D01*
X319199Y519479D01*
X319102Y519507D01*
X319004Y519531D01*
X318905Y519552D01*
X318805Y519569D01*
X318704Y519582D01*
X318603Y519591D01*
X318502Y519597D01*
X318401Y519599D01*
X313885Y519599D01*
X306969Y515987D02*
X306969Y512374D01*
X306968Y515987D02*
X306966Y516106D01*
X306960Y516226D01*
X306950Y516345D01*
X306936Y516463D01*
X306919Y516582D01*
X306897Y516699D01*
X306872Y516816D01*
X306842Y516931D01*
X306809Y517046D01*
X306772Y517160D01*
X306732Y517272D01*
X306687Y517383D01*
X306639Y517492D01*
X306588Y517600D01*
X306533Y517706D01*
X306474Y517810D01*
X306412Y517912D01*
X306347Y518012D01*
X306278Y518110D01*
X306206Y518206D01*
X306131Y518299D01*
X306054Y518389D01*
X305973Y518477D01*
X305889Y518562D01*
X305802Y518644D01*
X305713Y518724D01*
X305621Y518800D01*
X305527Y518874D01*
X305430Y518944D01*
X305332Y519011D01*
X305231Y519075D01*
X305127Y519135D01*
X305022Y519192D01*
X304915Y519245D01*
X304807Y519295D01*
X304697Y519341D01*
X304585Y519383D01*
X304472Y519422D01*
X304358Y519457D01*
X304243Y519488D01*
X304126Y519516D01*
X304009Y519539D01*
X303892Y519559D01*
X303773Y519575D01*
X303654Y519587D01*
X303535Y519595D01*
X303416Y519599D01*
X303296Y519599D01*
X303177Y519595D01*
X303058Y519587D01*
X302939Y519575D01*
X302820Y519559D01*
X302703Y519539D01*
X302586Y519516D01*
X302469Y519488D01*
X302354Y519457D01*
X302240Y519422D01*
X302127Y519383D01*
X302015Y519341D01*
X301905Y519295D01*
X301797Y519245D01*
X301690Y519192D01*
X301585Y519135D01*
X301481Y519075D01*
X301380Y519011D01*
X301282Y518944D01*
X301185Y518874D01*
X301091Y518800D01*
X300999Y518724D01*
X300910Y518644D01*
X300823Y518562D01*
X300739Y518477D01*
X300658Y518389D01*
X300581Y518299D01*
X300506Y518206D01*
X300434Y518110D01*
X300365Y518012D01*
X300300Y517912D01*
X300238Y517810D01*
X300179Y517706D01*
X300124Y517600D01*
X300073Y517492D01*
X300025Y517383D01*
X299980Y517272D01*
X299940Y517160D01*
X299903Y517046D01*
X299870Y516931D01*
X299840Y516816D01*
X299815Y516699D01*
X299793Y516582D01*
X299776Y516463D01*
X299762Y516345D01*
X299752Y516226D01*
X299746Y516106D01*
X299744Y515987D01*
X299744Y512374D01*
X299746Y512255D01*
X299752Y512135D01*
X299762Y512016D01*
X299776Y511898D01*
X299793Y511779D01*
X299815Y511662D01*
X299840Y511545D01*
X299870Y511430D01*
X299903Y511315D01*
X299940Y511201D01*
X299980Y511089D01*
X300025Y510978D01*
X300073Y510869D01*
X300124Y510761D01*
X300179Y510655D01*
X300238Y510551D01*
X300300Y510449D01*
X300365Y510349D01*
X300434Y510251D01*
X300506Y510155D01*
X300581Y510062D01*
X300658Y509972D01*
X300739Y509884D01*
X300823Y509799D01*
X300910Y509717D01*
X300999Y509637D01*
X301091Y509561D01*
X301185Y509487D01*
X301282Y509417D01*
X301380Y509350D01*
X301481Y509286D01*
X301585Y509226D01*
X301690Y509169D01*
X301797Y509116D01*
X301905Y509066D01*
X302015Y509020D01*
X302127Y508978D01*
X302240Y508939D01*
X302354Y508904D01*
X302469Y508873D01*
X302586Y508845D01*
X302703Y508822D01*
X302820Y508802D01*
X302939Y508786D01*
X303058Y508774D01*
X303177Y508766D01*
X303296Y508762D01*
X303416Y508762D01*
X303535Y508766D01*
X303654Y508774D01*
X303773Y508786D01*
X303892Y508802D01*
X304009Y508822D01*
X304126Y508845D01*
X304243Y508873D01*
X304358Y508904D01*
X304472Y508939D01*
X304585Y508978D01*
X304697Y509020D01*
X304807Y509066D01*
X304915Y509116D01*
X305022Y509169D01*
X305127Y509226D01*
X305231Y509286D01*
X305332Y509350D01*
X305430Y509417D01*
X305527Y509487D01*
X305621Y509561D01*
X305713Y509637D01*
X305802Y509717D01*
X305889Y509799D01*
X305973Y509884D01*
X306054Y509972D01*
X306131Y510062D01*
X306206Y510155D01*
X306278Y510251D01*
X306347Y510349D01*
X306412Y510449D01*
X306474Y510551D01*
X306533Y510655D01*
X306588Y510761D01*
X306639Y510869D01*
X306687Y510978D01*
X306732Y511089D01*
X306772Y511201D01*
X306809Y511315D01*
X306842Y511430D01*
X306872Y511545D01*
X306897Y511662D01*
X306919Y511779D01*
X306936Y511898D01*
X306950Y512016D01*
X306960Y512135D01*
X306966Y512255D01*
X306968Y512374D01*
X292816Y508762D02*
X292816Y519599D01*
X287397Y519599D01*
X287397Y517793D01*
X279392Y515084D02*
X275328Y515084D01*
X279392Y515084D02*
X279504Y515082D01*
X279615Y515076D01*
X279726Y515066D01*
X279837Y515053D01*
X279947Y515035D01*
X280056Y515013D01*
X280165Y514988D01*
X280273Y514959D01*
X280379Y514926D01*
X280485Y514889D01*
X280589Y514849D01*
X280691Y514805D01*
X280792Y514757D01*
X280891Y514706D01*
X280989Y514651D01*
X281084Y514593D01*
X281177Y514532D01*
X281268Y514467D01*
X281357Y514399D01*
X281443Y514328D01*
X281526Y514255D01*
X281607Y514178D01*
X281686Y514098D01*
X281761Y514016D01*
X281833Y513931D01*
X281903Y513844D01*
X281969Y513754D01*
X282032Y513662D01*
X282092Y513567D01*
X282148Y513471D01*
X282201Y513373D01*
X282250Y513273D01*
X282296Y513171D01*
X282338Y513068D01*
X282377Y512963D01*
X282412Y512857D01*
X282443Y512750D01*
X282470Y512642D01*
X282494Y512533D01*
X282513Y512423D01*
X282529Y512313D01*
X282541Y512202D01*
X282549Y512090D01*
X282553Y511979D01*
X282553Y511867D01*
X282549Y511756D01*
X282541Y511644D01*
X282529Y511533D01*
X282513Y511423D01*
X282494Y511313D01*
X282470Y511204D01*
X282443Y511096D01*
X282412Y510989D01*
X282377Y510883D01*
X282338Y510778D01*
X282296Y510675D01*
X282250Y510573D01*
X282201Y510473D01*
X282148Y510375D01*
X282092Y510279D01*
X282032Y510184D01*
X281969Y510092D01*
X281903Y510002D01*
X281833Y509915D01*
X281761Y509830D01*
X281686Y509748D01*
X281607Y509668D01*
X281526Y509591D01*
X281443Y509518D01*
X281357Y509447D01*
X281268Y509379D01*
X281177Y509314D01*
X281084Y509253D01*
X280989Y509195D01*
X280891Y509140D01*
X280792Y509089D01*
X280691Y509041D01*
X280589Y508997D01*
X280485Y508957D01*
X280379Y508920D01*
X280273Y508887D01*
X280165Y508858D01*
X280056Y508833D01*
X279947Y508811D01*
X279837Y508793D01*
X279726Y508780D01*
X279615Y508770D01*
X279504Y508764D01*
X279392Y508762D01*
X275328Y508762D01*
X275328Y516890D01*
X275330Y516991D01*
X275336Y517092D01*
X275345Y517193D01*
X275358Y517294D01*
X275375Y517394D01*
X275396Y517493D01*
X275420Y517591D01*
X275448Y517688D01*
X275480Y517785D01*
X275515Y517880D01*
X275554Y517973D01*
X275596Y518065D01*
X275642Y518156D01*
X275691Y518245D01*
X275743Y518331D01*
X275799Y518416D01*
X275857Y518499D01*
X275919Y518579D01*
X275984Y518657D01*
X276051Y518733D01*
X276121Y518806D01*
X276194Y518876D01*
X276270Y518943D01*
X276348Y519008D01*
X276428Y519070D01*
X276511Y519128D01*
X276596Y519184D01*
X276683Y519236D01*
X276771Y519285D01*
X276862Y519331D01*
X276954Y519373D01*
X277047Y519412D01*
X277142Y519447D01*
X277239Y519479D01*
X277336Y519507D01*
X277434Y519531D01*
X277533Y519552D01*
X277633Y519569D01*
X277734Y519582D01*
X277835Y519591D01*
X277936Y519597D01*
X278037Y519599D01*
X278038Y519599D02*
X281650Y519599D01*
X259204Y525018D02*
X259204Y508762D01*
X259204Y525018D02*
X254689Y525018D01*
X254556Y525016D01*
X254424Y525010D01*
X254292Y525000D01*
X254160Y524987D01*
X254028Y524969D01*
X253898Y524948D01*
X253767Y524923D01*
X253638Y524894D01*
X253510Y524861D01*
X253382Y524825D01*
X253256Y524785D01*
X253131Y524741D01*
X253007Y524693D01*
X252885Y524642D01*
X252764Y524587D01*
X252645Y524529D01*
X252527Y524467D01*
X252412Y524402D01*
X252298Y524333D01*
X252187Y524262D01*
X252078Y524186D01*
X251971Y524108D01*
X251866Y524027D01*
X251764Y523942D01*
X251664Y523855D01*
X251567Y523765D01*
X251472Y523672D01*
X251381Y523576D01*
X251292Y523478D01*
X251206Y523377D01*
X251123Y523273D01*
X251043Y523167D01*
X250967Y523059D01*
X250893Y522949D01*
X250823Y522836D01*
X250756Y522722D01*
X250693Y522605D01*
X250633Y522487D01*
X250576Y522367D01*
X250523Y522245D01*
X250474Y522122D01*
X250428Y521998D01*
X250386Y521872D01*
X250348Y521745D01*
X250313Y521617D01*
X250282Y521488D01*
X250255Y521359D01*
X250232Y521228D01*
X250212Y521097D01*
X250197Y520965D01*
X250185Y520833D01*
X250177Y520701D01*
X250173Y520568D01*
X250173Y520436D01*
X250177Y520303D01*
X250185Y520171D01*
X250197Y520039D01*
X250212Y519907D01*
X250232Y519776D01*
X250255Y519645D01*
X250282Y519516D01*
X250313Y519387D01*
X250348Y519259D01*
X250386Y519132D01*
X250428Y519006D01*
X250474Y518882D01*
X250523Y518759D01*
X250576Y518637D01*
X250633Y518517D01*
X250693Y518399D01*
X250756Y518282D01*
X250823Y518168D01*
X250893Y518055D01*
X250967Y517945D01*
X251043Y517837D01*
X251123Y517731D01*
X251206Y517627D01*
X251292Y517526D01*
X251381Y517428D01*
X251472Y517332D01*
X251567Y517239D01*
X251664Y517149D01*
X251764Y517062D01*
X251866Y516977D01*
X251971Y516896D01*
X252078Y516818D01*
X252187Y516742D01*
X252298Y516671D01*
X252412Y516602D01*
X252527Y516537D01*
X252645Y516475D01*
X252764Y516417D01*
X252885Y516362D01*
X253007Y516311D01*
X253131Y516263D01*
X253256Y516219D01*
X253382Y516179D01*
X253510Y516143D01*
X253638Y516110D01*
X253767Y516081D01*
X253898Y516056D01*
X254028Y516035D01*
X254160Y516017D01*
X254292Y516004D01*
X254424Y515994D01*
X254556Y515988D01*
X254689Y515986D01*
X254689Y515987D02*
X259204Y515987D01*
X240732Y508762D02*
X237119Y508762D01*
X240732Y508762D02*
X240850Y508764D01*
X240968Y508770D01*
X241086Y508779D01*
X241203Y508793D01*
X241320Y508810D01*
X241437Y508831D01*
X241552Y508856D01*
X241667Y508885D01*
X241781Y508918D01*
X241893Y508954D01*
X242004Y508994D01*
X242114Y509037D01*
X242223Y509084D01*
X242330Y509134D01*
X242435Y509189D01*
X242538Y509246D01*
X242639Y509307D01*
X242739Y509371D01*
X242836Y509438D01*
X242931Y509508D01*
X243023Y509582D01*
X243114Y509658D01*
X243201Y509738D01*
X243286Y509820D01*
X243368Y509905D01*
X243448Y509992D01*
X243524Y510083D01*
X243598Y510175D01*
X243668Y510270D01*
X243735Y510367D01*
X243799Y510467D01*
X243860Y510568D01*
X243917Y510671D01*
X243972Y510776D01*
X244022Y510883D01*
X244069Y510992D01*
X244112Y511102D01*
X244152Y511213D01*
X244188Y511325D01*
X244221Y511439D01*
X244250Y511554D01*
X244275Y511669D01*
X244296Y511786D01*
X244313Y511903D01*
X244327Y512020D01*
X244336Y512138D01*
X244342Y512256D01*
X244344Y512374D01*
X244344Y521406D01*
X244342Y521524D01*
X244336Y521642D01*
X244327Y521760D01*
X244313Y521877D01*
X244296Y521994D01*
X244275Y522111D01*
X244250Y522226D01*
X244221Y522341D01*
X244188Y522455D01*
X244152Y522567D01*
X244112Y522678D01*
X244069Y522788D01*
X244022Y522897D01*
X243972Y523004D01*
X243917Y523109D01*
X243860Y523212D01*
X243799Y523313D01*
X243735Y523413D01*
X243668Y523510D01*
X243598Y523605D01*
X243524Y523697D01*
X243448Y523788D01*
X243368Y523875D01*
X243286Y523960D01*
X243201Y524042D01*
X243114Y524122D01*
X243023Y524198D01*
X242931Y524272D01*
X242836Y524342D01*
X242739Y524409D01*
X242639Y524473D01*
X242538Y524534D01*
X242435Y524591D01*
X242330Y524646D01*
X242223Y524696D01*
X242114Y524743D01*
X242004Y524786D01*
X241893Y524826D01*
X241781Y524862D01*
X241667Y524895D01*
X241552Y524924D01*
X241437Y524949D01*
X241320Y524970D01*
X241203Y524987D01*
X241086Y525001D01*
X240968Y525010D01*
X240850Y525016D01*
X240732Y525018D01*
X237119Y525018D01*
X614313Y483362D02*
X621538Y483362D01*
X621538Y499618D01*
X614313Y499618D01*
X616119Y492393D02*
X621538Y492393D01*
X603644Y483362D02*
X603526Y483364D01*
X603408Y483370D01*
X603290Y483379D01*
X603173Y483393D01*
X603056Y483410D01*
X602939Y483431D01*
X602824Y483456D01*
X602709Y483485D01*
X602595Y483518D01*
X602483Y483554D01*
X602372Y483594D01*
X602262Y483637D01*
X602153Y483684D01*
X602046Y483734D01*
X601941Y483789D01*
X601838Y483846D01*
X601737Y483907D01*
X601637Y483971D01*
X601540Y484038D01*
X601445Y484108D01*
X601353Y484182D01*
X601262Y484258D01*
X601175Y484338D01*
X601090Y484420D01*
X601008Y484505D01*
X600928Y484592D01*
X600852Y484683D01*
X600778Y484775D01*
X600708Y484870D01*
X600641Y484967D01*
X600577Y485067D01*
X600516Y485168D01*
X600459Y485271D01*
X600404Y485376D01*
X600354Y485483D01*
X600307Y485592D01*
X600264Y485702D01*
X600224Y485813D01*
X600188Y485925D01*
X600155Y486039D01*
X600126Y486154D01*
X600101Y486269D01*
X600080Y486386D01*
X600063Y486503D01*
X600049Y486620D01*
X600040Y486738D01*
X600034Y486856D01*
X600032Y486974D01*
X603644Y483362D02*
X603827Y483364D01*
X604009Y483371D01*
X604191Y483382D01*
X604373Y483397D01*
X604555Y483417D01*
X604736Y483441D01*
X604916Y483469D01*
X605096Y483501D01*
X605275Y483538D01*
X605452Y483579D01*
X605629Y483625D01*
X605805Y483674D01*
X605980Y483728D01*
X606153Y483786D01*
X606324Y483848D01*
X606495Y483914D01*
X606663Y483985D01*
X606830Y484059D01*
X606995Y484137D01*
X607158Y484219D01*
X607319Y484305D01*
X607478Y484395D01*
X607635Y484489D01*
X607789Y484586D01*
X607941Y484687D01*
X608091Y484792D01*
X608238Y484900D01*
X608382Y485011D01*
X608524Y485126D01*
X608663Y485245D01*
X608799Y485367D01*
X608932Y485492D01*
X609062Y485620D01*
X608611Y496006D02*
X608609Y496124D01*
X608603Y496242D01*
X608594Y496360D01*
X608580Y496477D01*
X608563Y496594D01*
X608542Y496711D01*
X608517Y496826D01*
X608488Y496941D01*
X608455Y497055D01*
X608419Y497167D01*
X608379Y497278D01*
X608336Y497388D01*
X608289Y497497D01*
X608239Y497604D01*
X608184Y497709D01*
X608127Y497812D01*
X608066Y497913D01*
X608002Y498013D01*
X607935Y498110D01*
X607865Y498205D01*
X607791Y498297D01*
X607715Y498388D01*
X607635Y498475D01*
X607553Y498560D01*
X607468Y498642D01*
X607381Y498722D01*
X607290Y498798D01*
X607198Y498872D01*
X607103Y498942D01*
X607006Y499009D01*
X606906Y499073D01*
X606805Y499134D01*
X606702Y499191D01*
X606597Y499246D01*
X606490Y499296D01*
X606381Y499343D01*
X606271Y499386D01*
X606160Y499426D01*
X606048Y499462D01*
X605934Y499495D01*
X605819Y499524D01*
X605704Y499549D01*
X605587Y499570D01*
X605470Y499587D01*
X605353Y499601D01*
X605235Y499610D01*
X605117Y499616D01*
X604999Y499618D01*
X604838Y499616D01*
X604676Y499610D01*
X604515Y499601D01*
X604354Y499587D01*
X604194Y499570D01*
X604034Y499549D01*
X603874Y499524D01*
X603715Y499495D01*
X603557Y499463D01*
X603400Y499427D01*
X603244Y499387D01*
X603088Y499343D01*
X602934Y499295D01*
X602781Y499244D01*
X602629Y499190D01*
X602478Y499131D01*
X602329Y499070D01*
X602182Y499004D01*
X602036Y498935D01*
X601891Y498863D01*
X601749Y498787D01*
X601608Y498708D01*
X601469Y498626D01*
X601333Y498540D01*
X601198Y498451D01*
X601065Y498359D01*
X600935Y498263D01*
X606805Y492845D02*
X606906Y492907D01*
X607006Y492972D01*
X607103Y493041D01*
X607198Y493113D01*
X607291Y493187D01*
X607381Y493265D01*
X607469Y493346D01*
X607554Y493429D01*
X607636Y493515D01*
X607715Y493604D01*
X607792Y493695D01*
X607865Y493789D01*
X607936Y493885D01*
X608003Y493983D01*
X608067Y494083D01*
X608128Y494186D01*
X608185Y494290D01*
X608239Y494396D01*
X608289Y494504D01*
X608336Y494613D01*
X608380Y494724D01*
X608420Y494836D01*
X608456Y494950D01*
X608488Y495064D01*
X608517Y495180D01*
X608542Y495296D01*
X608563Y495413D01*
X608580Y495531D01*
X608594Y495649D01*
X608603Y495768D01*
X608609Y495887D01*
X608611Y496006D01*
X601838Y490135D02*
X601737Y490073D01*
X601637Y490008D01*
X601540Y489939D01*
X601445Y489867D01*
X601352Y489793D01*
X601262Y489715D01*
X601174Y489634D01*
X601089Y489551D01*
X601007Y489465D01*
X600928Y489376D01*
X600851Y489285D01*
X600778Y489191D01*
X600707Y489095D01*
X600640Y488997D01*
X600576Y488897D01*
X600515Y488794D01*
X600458Y488690D01*
X600404Y488584D01*
X600354Y488476D01*
X600307Y488367D01*
X600263Y488256D01*
X600223Y488144D01*
X600187Y488030D01*
X600155Y487916D01*
X600126Y487800D01*
X600101Y487684D01*
X600080Y487567D01*
X600063Y487449D01*
X600049Y487331D01*
X600040Y487212D01*
X600034Y487093D01*
X600032Y486974D01*
X601838Y490135D02*
X606805Y492845D01*
X590479Y499618D02*
X590479Y483362D01*
X594995Y499618D02*
X585964Y499618D01*
X575890Y499618D02*
X581309Y483362D01*
X570471Y483362D02*
X575890Y499618D01*
X571826Y487426D02*
X579954Y487426D01*
X561201Y483362D02*
X557589Y483362D01*
X561201Y483362D02*
X561319Y483364D01*
X561437Y483370D01*
X561555Y483379D01*
X561672Y483393D01*
X561789Y483410D01*
X561906Y483431D01*
X562021Y483456D01*
X562136Y483485D01*
X562250Y483518D01*
X562362Y483554D01*
X562473Y483594D01*
X562583Y483637D01*
X562692Y483684D01*
X562799Y483734D01*
X562904Y483789D01*
X563007Y483846D01*
X563108Y483907D01*
X563208Y483971D01*
X563305Y484038D01*
X563400Y484108D01*
X563492Y484182D01*
X563583Y484258D01*
X563670Y484338D01*
X563755Y484420D01*
X563837Y484505D01*
X563917Y484592D01*
X563993Y484683D01*
X564067Y484775D01*
X564137Y484870D01*
X564204Y484967D01*
X564268Y485067D01*
X564329Y485168D01*
X564386Y485271D01*
X564441Y485376D01*
X564491Y485483D01*
X564538Y485592D01*
X564581Y485702D01*
X564621Y485813D01*
X564657Y485925D01*
X564690Y486039D01*
X564719Y486154D01*
X564744Y486269D01*
X564765Y486386D01*
X564782Y486503D01*
X564796Y486620D01*
X564805Y486738D01*
X564811Y486856D01*
X564813Y486974D01*
X564814Y486974D02*
X564814Y496006D01*
X564813Y496006D02*
X564811Y496124D01*
X564805Y496242D01*
X564796Y496360D01*
X564782Y496477D01*
X564765Y496594D01*
X564744Y496711D01*
X564719Y496826D01*
X564690Y496941D01*
X564657Y497055D01*
X564621Y497167D01*
X564581Y497278D01*
X564538Y497388D01*
X564491Y497497D01*
X564441Y497604D01*
X564386Y497709D01*
X564329Y497812D01*
X564268Y497913D01*
X564204Y498013D01*
X564137Y498110D01*
X564067Y498205D01*
X563993Y498297D01*
X563917Y498388D01*
X563837Y498475D01*
X563755Y498560D01*
X563670Y498642D01*
X563583Y498722D01*
X563492Y498798D01*
X563400Y498872D01*
X563305Y498942D01*
X563208Y499009D01*
X563108Y499073D01*
X563007Y499134D01*
X562904Y499191D01*
X562799Y499246D01*
X562692Y499296D01*
X562583Y499343D01*
X562473Y499386D01*
X562362Y499426D01*
X562250Y499462D01*
X562136Y499495D01*
X562021Y499524D01*
X561906Y499549D01*
X561789Y499570D01*
X561672Y499587D01*
X561555Y499601D01*
X561437Y499610D01*
X561319Y499616D01*
X561201Y499618D01*
X557589Y499618D01*
X550359Y499618D02*
X550359Y483362D01*
X552165Y483362D02*
X548553Y483362D01*
X548553Y499618D02*
X552165Y499618D01*
X542370Y495102D02*
X542370Y487878D01*
X542370Y495102D02*
X542368Y495235D01*
X542362Y495367D01*
X542352Y495499D01*
X542339Y495631D01*
X542321Y495763D01*
X542300Y495893D01*
X542275Y496024D01*
X542246Y496153D01*
X542213Y496281D01*
X542177Y496409D01*
X542137Y496535D01*
X542093Y496660D01*
X542045Y496784D01*
X541994Y496906D01*
X541939Y497027D01*
X541881Y497146D01*
X541819Y497264D01*
X541754Y497379D01*
X541685Y497493D01*
X541614Y497604D01*
X541538Y497713D01*
X541460Y497820D01*
X541379Y497925D01*
X541294Y498027D01*
X541207Y498127D01*
X541117Y498224D01*
X541024Y498319D01*
X540928Y498410D01*
X540830Y498499D01*
X540729Y498585D01*
X540625Y498668D01*
X540519Y498748D01*
X540411Y498824D01*
X540301Y498898D01*
X540188Y498968D01*
X540074Y499035D01*
X539957Y499098D01*
X539839Y499158D01*
X539719Y499215D01*
X539597Y499268D01*
X539474Y499317D01*
X539350Y499363D01*
X539224Y499405D01*
X539097Y499443D01*
X538969Y499478D01*
X538840Y499509D01*
X538711Y499536D01*
X538580Y499559D01*
X538449Y499579D01*
X538317Y499594D01*
X538185Y499606D01*
X538053Y499614D01*
X537920Y499618D01*
X537788Y499618D01*
X537655Y499614D01*
X537523Y499606D01*
X537391Y499594D01*
X537259Y499579D01*
X537128Y499559D01*
X536997Y499536D01*
X536868Y499509D01*
X536739Y499478D01*
X536611Y499443D01*
X536484Y499405D01*
X536358Y499363D01*
X536234Y499317D01*
X536111Y499268D01*
X535989Y499215D01*
X535869Y499158D01*
X535751Y499098D01*
X535634Y499035D01*
X535520Y498968D01*
X535407Y498898D01*
X535297Y498824D01*
X535189Y498748D01*
X535083Y498668D01*
X534979Y498585D01*
X534878Y498499D01*
X534780Y498410D01*
X534684Y498319D01*
X534591Y498224D01*
X534501Y498127D01*
X534414Y498027D01*
X534329Y497925D01*
X534248Y497820D01*
X534170Y497713D01*
X534094Y497604D01*
X534023Y497493D01*
X533954Y497379D01*
X533889Y497264D01*
X533827Y497146D01*
X533769Y497027D01*
X533714Y496906D01*
X533663Y496784D01*
X533615Y496660D01*
X533571Y496535D01*
X533531Y496409D01*
X533495Y496281D01*
X533462Y496153D01*
X533433Y496024D01*
X533408Y495893D01*
X533387Y495763D01*
X533369Y495631D01*
X533356Y495499D01*
X533346Y495367D01*
X533340Y495235D01*
X533338Y495102D01*
X533339Y495102D02*
X533339Y487878D01*
X533338Y487878D02*
X533340Y487745D01*
X533346Y487613D01*
X533356Y487481D01*
X533369Y487349D01*
X533387Y487217D01*
X533408Y487087D01*
X533433Y486956D01*
X533462Y486827D01*
X533495Y486699D01*
X533531Y486571D01*
X533571Y486445D01*
X533615Y486320D01*
X533663Y486196D01*
X533714Y486074D01*
X533769Y485953D01*
X533827Y485834D01*
X533889Y485716D01*
X533954Y485601D01*
X534023Y485487D01*
X534094Y485376D01*
X534170Y485267D01*
X534248Y485160D01*
X534329Y485055D01*
X534414Y484953D01*
X534501Y484853D01*
X534591Y484756D01*
X534684Y484661D01*
X534780Y484570D01*
X534878Y484481D01*
X534979Y484395D01*
X535083Y484312D01*
X535189Y484232D01*
X535297Y484156D01*
X535407Y484082D01*
X535520Y484012D01*
X535634Y483945D01*
X535751Y483882D01*
X535869Y483822D01*
X535989Y483765D01*
X536111Y483712D01*
X536234Y483663D01*
X536358Y483617D01*
X536484Y483575D01*
X536611Y483537D01*
X536739Y483502D01*
X536868Y483471D01*
X536997Y483444D01*
X537128Y483421D01*
X537259Y483401D01*
X537391Y483386D01*
X537523Y483374D01*
X537655Y483366D01*
X537788Y483362D01*
X537920Y483362D01*
X538053Y483366D01*
X538185Y483374D01*
X538317Y483386D01*
X538449Y483401D01*
X538580Y483421D01*
X538711Y483444D01*
X538840Y483471D01*
X538969Y483502D01*
X539097Y483537D01*
X539224Y483575D01*
X539350Y483617D01*
X539474Y483663D01*
X539597Y483712D01*
X539719Y483765D01*
X539839Y483822D01*
X539957Y483882D01*
X540074Y483945D01*
X540188Y484012D01*
X540301Y484082D01*
X540411Y484156D01*
X540519Y484232D01*
X540625Y484312D01*
X540729Y484395D01*
X540830Y484481D01*
X540928Y484570D01*
X541024Y484661D01*
X541117Y484756D01*
X541207Y484853D01*
X541294Y484953D01*
X541379Y485055D01*
X541460Y485160D01*
X541538Y485267D01*
X541614Y485376D01*
X541685Y485487D01*
X541754Y485601D01*
X541819Y485716D01*
X541881Y485834D01*
X541939Y485953D01*
X541994Y486074D01*
X542045Y486196D01*
X542093Y486320D01*
X542137Y486445D01*
X542177Y486571D01*
X542213Y486699D01*
X542246Y486827D01*
X542275Y486956D01*
X542300Y487087D01*
X542321Y487217D01*
X542339Y487349D01*
X542352Y487481D01*
X542362Y487613D01*
X542368Y487745D01*
X542370Y487878D01*
X526217Y483362D02*
X526217Y499618D01*
X517186Y483362D01*
X517186Y499618D01*
X505549Y499618D02*
X510968Y483362D01*
X500131Y483362D02*
X505549Y499618D01*
X501485Y487426D02*
X509613Y487426D01*
X493774Y483362D02*
X493774Y499618D01*
X488355Y490587D01*
X482936Y499618D01*
X482936Y483362D01*
X474287Y483362D02*
X474287Y499618D01*
X476093Y483362D02*
X472481Y483362D01*
X472481Y499618D02*
X476093Y499618D01*
X465747Y483362D02*
X458522Y483362D01*
X465747Y483362D02*
X465747Y499618D01*
X458522Y499618D01*
X460328Y492393D02*
X465747Y492393D01*
X452229Y499618D02*
X452229Y483362D01*
X443198Y483362D02*
X452229Y499618D01*
X443198Y499618D02*
X443198Y483362D01*
X432604Y483362D02*
X432604Y499618D01*
X437119Y499618D02*
X428088Y499618D01*
X422530Y495102D02*
X422530Y487878D01*
X422531Y495102D02*
X422529Y495235D01*
X422523Y495367D01*
X422513Y495499D01*
X422500Y495631D01*
X422482Y495763D01*
X422461Y495893D01*
X422436Y496024D01*
X422407Y496153D01*
X422374Y496281D01*
X422338Y496409D01*
X422298Y496535D01*
X422254Y496660D01*
X422206Y496784D01*
X422155Y496906D01*
X422100Y497027D01*
X422042Y497146D01*
X421980Y497264D01*
X421915Y497379D01*
X421846Y497493D01*
X421775Y497604D01*
X421699Y497713D01*
X421621Y497820D01*
X421540Y497925D01*
X421455Y498027D01*
X421368Y498127D01*
X421278Y498224D01*
X421185Y498319D01*
X421089Y498410D01*
X420991Y498499D01*
X420890Y498585D01*
X420786Y498668D01*
X420680Y498748D01*
X420572Y498824D01*
X420462Y498898D01*
X420349Y498968D01*
X420235Y499035D01*
X420118Y499098D01*
X420000Y499158D01*
X419880Y499215D01*
X419758Y499268D01*
X419635Y499317D01*
X419511Y499363D01*
X419385Y499405D01*
X419258Y499443D01*
X419130Y499478D01*
X419001Y499509D01*
X418872Y499536D01*
X418741Y499559D01*
X418610Y499579D01*
X418478Y499594D01*
X418346Y499606D01*
X418214Y499614D01*
X418081Y499618D01*
X417949Y499618D01*
X417816Y499614D01*
X417684Y499606D01*
X417552Y499594D01*
X417420Y499579D01*
X417289Y499559D01*
X417158Y499536D01*
X417029Y499509D01*
X416900Y499478D01*
X416772Y499443D01*
X416645Y499405D01*
X416519Y499363D01*
X416395Y499317D01*
X416272Y499268D01*
X416150Y499215D01*
X416030Y499158D01*
X415912Y499098D01*
X415795Y499035D01*
X415681Y498968D01*
X415568Y498898D01*
X415458Y498824D01*
X415350Y498748D01*
X415244Y498668D01*
X415140Y498585D01*
X415039Y498499D01*
X414941Y498410D01*
X414845Y498319D01*
X414752Y498224D01*
X414662Y498127D01*
X414575Y498027D01*
X414490Y497925D01*
X414409Y497820D01*
X414331Y497713D01*
X414255Y497604D01*
X414184Y497493D01*
X414115Y497379D01*
X414050Y497264D01*
X413988Y497146D01*
X413930Y497027D01*
X413875Y496906D01*
X413824Y496784D01*
X413776Y496660D01*
X413732Y496535D01*
X413692Y496409D01*
X413656Y496281D01*
X413623Y496153D01*
X413594Y496024D01*
X413569Y495893D01*
X413548Y495763D01*
X413530Y495631D01*
X413517Y495499D01*
X413507Y495367D01*
X413501Y495235D01*
X413499Y495102D01*
X413499Y487878D01*
X413501Y487745D01*
X413507Y487613D01*
X413517Y487481D01*
X413530Y487349D01*
X413548Y487217D01*
X413569Y487087D01*
X413594Y486956D01*
X413623Y486827D01*
X413656Y486699D01*
X413692Y486571D01*
X413732Y486445D01*
X413776Y486320D01*
X413824Y486196D01*
X413875Y486074D01*
X413930Y485953D01*
X413988Y485834D01*
X414050Y485716D01*
X414115Y485601D01*
X414184Y485487D01*
X414255Y485376D01*
X414331Y485267D01*
X414409Y485160D01*
X414490Y485055D01*
X414575Y484953D01*
X414662Y484853D01*
X414752Y484756D01*
X414845Y484661D01*
X414941Y484570D01*
X415039Y484481D01*
X415140Y484395D01*
X415244Y484312D01*
X415350Y484232D01*
X415458Y484156D01*
X415568Y484082D01*
X415681Y484012D01*
X415795Y483945D01*
X415912Y483882D01*
X416030Y483822D01*
X416150Y483765D01*
X416272Y483712D01*
X416395Y483663D01*
X416519Y483617D01*
X416645Y483575D01*
X416772Y483537D01*
X416900Y483502D01*
X417029Y483471D01*
X417158Y483444D01*
X417289Y483421D01*
X417420Y483401D01*
X417552Y483386D01*
X417684Y483374D01*
X417816Y483366D01*
X417949Y483362D01*
X418081Y483362D01*
X418214Y483366D01*
X418346Y483374D01*
X418478Y483386D01*
X418610Y483401D01*
X418741Y483421D01*
X418872Y483444D01*
X419001Y483471D01*
X419130Y483502D01*
X419258Y483537D01*
X419385Y483575D01*
X419511Y483617D01*
X419635Y483663D01*
X419758Y483712D01*
X419880Y483765D01*
X420000Y483822D01*
X420118Y483882D01*
X420235Y483945D01*
X420349Y484012D01*
X420462Y484082D01*
X420572Y484156D01*
X420680Y484232D01*
X420786Y484312D01*
X420890Y484395D01*
X420991Y484481D01*
X421089Y484570D01*
X421185Y484661D01*
X421278Y484756D01*
X421368Y484853D01*
X421455Y484953D01*
X421540Y485055D01*
X421621Y485160D01*
X421699Y485267D01*
X421775Y485376D01*
X421846Y485487D01*
X421915Y485601D01*
X421980Y485716D01*
X422042Y485834D01*
X422100Y485953D01*
X422155Y486074D01*
X422206Y486196D01*
X422254Y486320D01*
X422298Y486445D01*
X422338Y486571D01*
X422374Y486699D01*
X422407Y486827D01*
X422436Y486956D01*
X422461Y487087D01*
X422482Y487217D01*
X422500Y487349D01*
X422513Y487481D01*
X422523Y487613D01*
X422529Y487745D01*
X422531Y487878D01*
X402001Y483362D02*
X401883Y483364D01*
X401765Y483370D01*
X401647Y483379D01*
X401530Y483393D01*
X401413Y483410D01*
X401296Y483431D01*
X401181Y483456D01*
X401066Y483485D01*
X400952Y483518D01*
X400840Y483554D01*
X400729Y483594D01*
X400619Y483637D01*
X400510Y483684D01*
X400403Y483734D01*
X400298Y483789D01*
X400195Y483846D01*
X400094Y483907D01*
X399994Y483971D01*
X399897Y484038D01*
X399802Y484108D01*
X399710Y484182D01*
X399619Y484258D01*
X399532Y484338D01*
X399447Y484420D01*
X399365Y484505D01*
X399285Y484592D01*
X399209Y484683D01*
X399135Y484775D01*
X399065Y484870D01*
X398998Y484967D01*
X398934Y485067D01*
X398873Y485168D01*
X398816Y485271D01*
X398761Y485376D01*
X398711Y485483D01*
X398664Y485592D01*
X398621Y485702D01*
X398581Y485813D01*
X398545Y485925D01*
X398512Y486039D01*
X398483Y486154D01*
X398458Y486269D01*
X398437Y486386D01*
X398420Y486503D01*
X398406Y486620D01*
X398397Y486738D01*
X398391Y486856D01*
X398389Y486974D01*
X402001Y483362D02*
X402184Y483364D01*
X402366Y483371D01*
X402548Y483382D01*
X402730Y483397D01*
X402912Y483417D01*
X403093Y483441D01*
X403273Y483469D01*
X403453Y483501D01*
X403632Y483538D01*
X403809Y483579D01*
X403986Y483625D01*
X404162Y483674D01*
X404337Y483728D01*
X404510Y483786D01*
X404681Y483848D01*
X404852Y483914D01*
X405020Y483985D01*
X405187Y484059D01*
X405352Y484137D01*
X405515Y484219D01*
X405676Y484305D01*
X405835Y484395D01*
X405992Y484489D01*
X406146Y484586D01*
X406298Y484687D01*
X406448Y484792D01*
X406595Y484900D01*
X406739Y485011D01*
X406881Y485126D01*
X407020Y485245D01*
X407156Y485367D01*
X407289Y485492D01*
X407419Y485620D01*
X406968Y496006D02*
X406966Y496124D01*
X406960Y496242D01*
X406951Y496360D01*
X406937Y496477D01*
X406920Y496594D01*
X406899Y496711D01*
X406874Y496826D01*
X406845Y496941D01*
X406812Y497055D01*
X406776Y497167D01*
X406736Y497278D01*
X406693Y497388D01*
X406646Y497497D01*
X406596Y497604D01*
X406541Y497709D01*
X406484Y497812D01*
X406423Y497913D01*
X406359Y498013D01*
X406292Y498110D01*
X406222Y498205D01*
X406148Y498297D01*
X406072Y498388D01*
X405992Y498475D01*
X405910Y498560D01*
X405825Y498642D01*
X405738Y498722D01*
X405647Y498798D01*
X405555Y498872D01*
X405460Y498942D01*
X405363Y499009D01*
X405263Y499073D01*
X405162Y499134D01*
X405059Y499191D01*
X404954Y499246D01*
X404847Y499296D01*
X404738Y499343D01*
X404628Y499386D01*
X404517Y499426D01*
X404405Y499462D01*
X404291Y499495D01*
X404176Y499524D01*
X404061Y499549D01*
X403944Y499570D01*
X403827Y499587D01*
X403710Y499601D01*
X403592Y499610D01*
X403474Y499616D01*
X403356Y499618D01*
X403195Y499616D01*
X403033Y499610D01*
X402872Y499601D01*
X402711Y499587D01*
X402551Y499570D01*
X402391Y499549D01*
X402231Y499524D01*
X402072Y499495D01*
X401914Y499463D01*
X401757Y499427D01*
X401601Y499387D01*
X401445Y499343D01*
X401291Y499295D01*
X401138Y499244D01*
X400986Y499190D01*
X400835Y499131D01*
X400686Y499070D01*
X400539Y499004D01*
X400393Y498935D01*
X400248Y498863D01*
X400106Y498787D01*
X399965Y498708D01*
X399826Y498626D01*
X399690Y498540D01*
X399555Y498451D01*
X399422Y498359D01*
X399292Y498263D01*
X405163Y492845D02*
X405264Y492907D01*
X405364Y492972D01*
X405461Y493041D01*
X405556Y493113D01*
X405649Y493187D01*
X405739Y493265D01*
X405827Y493346D01*
X405912Y493429D01*
X405994Y493515D01*
X406073Y493604D01*
X406150Y493695D01*
X406223Y493789D01*
X406294Y493885D01*
X406361Y493983D01*
X406425Y494083D01*
X406486Y494186D01*
X406543Y494290D01*
X406597Y494396D01*
X406647Y494504D01*
X406694Y494613D01*
X406738Y494724D01*
X406778Y494836D01*
X406814Y494950D01*
X406846Y495064D01*
X406875Y495180D01*
X406900Y495296D01*
X406921Y495413D01*
X406938Y495531D01*
X406952Y495649D01*
X406961Y495768D01*
X406967Y495887D01*
X406969Y496006D01*
X400195Y490135D02*
X400094Y490073D01*
X399994Y490008D01*
X399897Y489939D01*
X399802Y489867D01*
X399709Y489793D01*
X399619Y489715D01*
X399531Y489634D01*
X399446Y489551D01*
X399364Y489465D01*
X399285Y489376D01*
X399208Y489285D01*
X399135Y489191D01*
X399064Y489095D01*
X398997Y488997D01*
X398933Y488897D01*
X398872Y488794D01*
X398815Y488690D01*
X398761Y488584D01*
X398711Y488476D01*
X398664Y488367D01*
X398620Y488256D01*
X398580Y488144D01*
X398544Y488030D01*
X398512Y487916D01*
X398483Y487800D01*
X398458Y487684D01*
X398437Y487567D01*
X398420Y487449D01*
X398406Y487331D01*
X398397Y487212D01*
X398391Y487093D01*
X398389Y486974D01*
X400195Y490135D02*
X405162Y492845D01*
X383452Y487878D02*
X383452Y499618D01*
X383452Y487878D02*
X383450Y487745D01*
X383444Y487613D01*
X383434Y487481D01*
X383421Y487349D01*
X383403Y487217D01*
X383382Y487087D01*
X383357Y486956D01*
X383328Y486827D01*
X383295Y486699D01*
X383259Y486571D01*
X383219Y486445D01*
X383175Y486320D01*
X383127Y486196D01*
X383076Y486074D01*
X383021Y485953D01*
X382963Y485834D01*
X382901Y485716D01*
X382836Y485601D01*
X382767Y485487D01*
X382696Y485376D01*
X382620Y485267D01*
X382542Y485160D01*
X382461Y485055D01*
X382376Y484953D01*
X382289Y484853D01*
X382199Y484756D01*
X382106Y484661D01*
X382010Y484570D01*
X381912Y484481D01*
X381811Y484395D01*
X381707Y484312D01*
X381601Y484232D01*
X381493Y484156D01*
X381383Y484082D01*
X381270Y484012D01*
X381156Y483945D01*
X381039Y483882D01*
X380921Y483822D01*
X380801Y483765D01*
X380679Y483712D01*
X380556Y483663D01*
X380432Y483617D01*
X380306Y483575D01*
X380179Y483537D01*
X380051Y483502D01*
X379922Y483471D01*
X379793Y483444D01*
X379662Y483421D01*
X379531Y483401D01*
X379399Y483386D01*
X379267Y483374D01*
X379135Y483366D01*
X379002Y483362D01*
X378870Y483362D01*
X378737Y483366D01*
X378605Y483374D01*
X378473Y483386D01*
X378341Y483401D01*
X378210Y483421D01*
X378079Y483444D01*
X377950Y483471D01*
X377821Y483502D01*
X377693Y483537D01*
X377566Y483575D01*
X377440Y483617D01*
X377316Y483663D01*
X377193Y483712D01*
X377071Y483765D01*
X376951Y483822D01*
X376833Y483882D01*
X376716Y483945D01*
X376602Y484012D01*
X376489Y484082D01*
X376379Y484156D01*
X376271Y484232D01*
X376165Y484312D01*
X376061Y484395D01*
X375960Y484481D01*
X375862Y484570D01*
X375766Y484661D01*
X375673Y484756D01*
X375583Y484853D01*
X375496Y484953D01*
X375411Y485055D01*
X375330Y485160D01*
X375252Y485267D01*
X375176Y485376D01*
X375105Y485487D01*
X375036Y485601D01*
X374971Y485716D01*
X374909Y485834D01*
X374851Y485953D01*
X374796Y486074D01*
X374745Y486196D01*
X374697Y486320D01*
X374653Y486445D01*
X374613Y486571D01*
X374577Y486699D01*
X374544Y486827D01*
X374515Y486956D01*
X374490Y487087D01*
X374469Y487217D01*
X374451Y487349D01*
X374438Y487481D01*
X374428Y487613D01*
X374422Y487745D01*
X374420Y487878D01*
X374421Y487878D02*
X374421Y499618D01*
X366779Y499618D02*
X366779Y483362D01*
X357748Y483362D02*
X366779Y499618D01*
X357748Y499618D02*
X357748Y483362D01*
X349237Y483362D02*
X349237Y499618D01*
X351043Y483362D02*
X347431Y483362D01*
X347431Y499618D02*
X351043Y499618D01*
X337675Y483362D02*
X334062Y483362D01*
X337675Y483362D02*
X337793Y483364D01*
X337911Y483370D01*
X338029Y483379D01*
X338146Y483393D01*
X338263Y483410D01*
X338380Y483431D01*
X338495Y483456D01*
X338610Y483485D01*
X338724Y483518D01*
X338836Y483554D01*
X338947Y483594D01*
X339057Y483637D01*
X339166Y483684D01*
X339273Y483734D01*
X339378Y483789D01*
X339481Y483846D01*
X339582Y483907D01*
X339682Y483971D01*
X339779Y484038D01*
X339874Y484108D01*
X339966Y484182D01*
X340057Y484258D01*
X340144Y484338D01*
X340229Y484420D01*
X340311Y484505D01*
X340391Y484592D01*
X340467Y484683D01*
X340541Y484775D01*
X340611Y484870D01*
X340678Y484967D01*
X340742Y485067D01*
X340803Y485168D01*
X340860Y485271D01*
X340915Y485376D01*
X340965Y485483D01*
X341012Y485592D01*
X341055Y485702D01*
X341095Y485813D01*
X341131Y485925D01*
X341164Y486039D01*
X341193Y486154D01*
X341218Y486269D01*
X341239Y486386D01*
X341256Y486503D01*
X341270Y486620D01*
X341279Y486738D01*
X341285Y486856D01*
X341287Y486974D01*
X341287Y496006D01*
X341285Y496124D01*
X341279Y496242D01*
X341270Y496360D01*
X341256Y496477D01*
X341239Y496594D01*
X341218Y496711D01*
X341193Y496826D01*
X341164Y496941D01*
X341131Y497055D01*
X341095Y497167D01*
X341055Y497278D01*
X341012Y497388D01*
X340965Y497497D01*
X340915Y497604D01*
X340860Y497709D01*
X340803Y497812D01*
X340742Y497913D01*
X340678Y498013D01*
X340611Y498110D01*
X340541Y498205D01*
X340467Y498297D01*
X340391Y498388D01*
X340311Y498475D01*
X340229Y498560D01*
X340144Y498642D01*
X340057Y498722D01*
X339966Y498798D01*
X339874Y498872D01*
X339779Y498942D01*
X339682Y499009D01*
X339582Y499073D01*
X339481Y499134D01*
X339378Y499191D01*
X339273Y499246D01*
X339166Y499296D01*
X339057Y499343D01*
X338947Y499386D01*
X338836Y499426D01*
X338724Y499462D01*
X338610Y499495D01*
X338495Y499524D01*
X338380Y499549D01*
X338263Y499570D01*
X338146Y499587D01*
X338029Y499601D01*
X337911Y499610D01*
X337793Y499616D01*
X337675Y499618D01*
X334062Y499618D01*
X328222Y495102D02*
X328222Y487878D01*
X328222Y495102D02*
X328220Y495235D01*
X328214Y495367D01*
X328204Y495499D01*
X328191Y495631D01*
X328173Y495763D01*
X328152Y495893D01*
X328127Y496024D01*
X328098Y496153D01*
X328065Y496281D01*
X328029Y496409D01*
X327989Y496535D01*
X327945Y496660D01*
X327897Y496784D01*
X327846Y496906D01*
X327791Y497027D01*
X327733Y497146D01*
X327671Y497264D01*
X327606Y497379D01*
X327537Y497493D01*
X327466Y497604D01*
X327390Y497713D01*
X327312Y497820D01*
X327231Y497925D01*
X327146Y498027D01*
X327059Y498127D01*
X326969Y498224D01*
X326876Y498319D01*
X326780Y498410D01*
X326682Y498499D01*
X326581Y498585D01*
X326477Y498668D01*
X326371Y498748D01*
X326263Y498824D01*
X326153Y498898D01*
X326040Y498968D01*
X325926Y499035D01*
X325809Y499098D01*
X325691Y499158D01*
X325571Y499215D01*
X325449Y499268D01*
X325326Y499317D01*
X325202Y499363D01*
X325076Y499405D01*
X324949Y499443D01*
X324821Y499478D01*
X324692Y499509D01*
X324563Y499536D01*
X324432Y499559D01*
X324301Y499579D01*
X324169Y499594D01*
X324037Y499606D01*
X323905Y499614D01*
X323772Y499618D01*
X323640Y499618D01*
X323507Y499614D01*
X323375Y499606D01*
X323243Y499594D01*
X323111Y499579D01*
X322980Y499559D01*
X322849Y499536D01*
X322720Y499509D01*
X322591Y499478D01*
X322463Y499443D01*
X322336Y499405D01*
X322210Y499363D01*
X322086Y499317D01*
X321963Y499268D01*
X321841Y499215D01*
X321721Y499158D01*
X321603Y499098D01*
X321486Y499035D01*
X321372Y498968D01*
X321259Y498898D01*
X321149Y498824D01*
X321041Y498748D01*
X320935Y498668D01*
X320831Y498585D01*
X320730Y498499D01*
X320632Y498410D01*
X320536Y498319D01*
X320443Y498224D01*
X320353Y498127D01*
X320266Y498027D01*
X320181Y497925D01*
X320100Y497820D01*
X320022Y497713D01*
X319946Y497604D01*
X319875Y497493D01*
X319806Y497379D01*
X319741Y497264D01*
X319679Y497146D01*
X319621Y497027D01*
X319566Y496906D01*
X319515Y496784D01*
X319467Y496660D01*
X319423Y496535D01*
X319383Y496409D01*
X319347Y496281D01*
X319314Y496153D01*
X319285Y496024D01*
X319260Y495893D01*
X319239Y495763D01*
X319221Y495631D01*
X319208Y495499D01*
X319198Y495367D01*
X319192Y495235D01*
X319190Y495102D01*
X319191Y495102D02*
X319191Y487878D01*
X319190Y487878D02*
X319192Y487745D01*
X319198Y487613D01*
X319208Y487481D01*
X319221Y487349D01*
X319239Y487217D01*
X319260Y487087D01*
X319285Y486956D01*
X319314Y486827D01*
X319347Y486699D01*
X319383Y486571D01*
X319423Y486445D01*
X319467Y486320D01*
X319515Y486196D01*
X319566Y486074D01*
X319621Y485953D01*
X319679Y485834D01*
X319741Y485716D01*
X319806Y485601D01*
X319875Y485487D01*
X319946Y485376D01*
X320022Y485267D01*
X320100Y485160D01*
X320181Y485055D01*
X320266Y484953D01*
X320353Y484853D01*
X320443Y484756D01*
X320536Y484661D01*
X320632Y484570D01*
X320730Y484481D01*
X320831Y484395D01*
X320935Y484312D01*
X321041Y484232D01*
X321149Y484156D01*
X321259Y484082D01*
X321372Y484012D01*
X321486Y483945D01*
X321603Y483882D01*
X321721Y483822D01*
X321841Y483765D01*
X321963Y483712D01*
X322086Y483663D01*
X322210Y483617D01*
X322336Y483575D01*
X322463Y483537D01*
X322591Y483502D01*
X322720Y483471D01*
X322849Y483444D01*
X322980Y483421D01*
X323111Y483401D01*
X323243Y483386D01*
X323375Y483374D01*
X323507Y483366D01*
X323640Y483362D01*
X323772Y483362D01*
X323905Y483366D01*
X324037Y483374D01*
X324169Y483386D01*
X324301Y483401D01*
X324432Y483421D01*
X324563Y483444D01*
X324692Y483471D01*
X324821Y483502D01*
X324949Y483537D01*
X325076Y483575D01*
X325202Y483617D01*
X325326Y483663D01*
X325449Y483712D01*
X325571Y483765D01*
X325691Y483822D01*
X325809Y483882D01*
X325926Y483945D01*
X326040Y484012D01*
X326153Y484082D01*
X326263Y484156D01*
X326371Y484232D01*
X326477Y484312D01*
X326581Y484395D01*
X326682Y484481D01*
X326780Y484570D01*
X326876Y484661D01*
X326969Y484756D01*
X327059Y484853D01*
X327146Y484953D01*
X327231Y485055D01*
X327312Y485160D01*
X327390Y485267D01*
X327466Y485376D01*
X327537Y485487D01*
X327606Y485601D01*
X327671Y485716D01*
X327733Y485834D01*
X327791Y485953D01*
X327846Y486074D01*
X327897Y486196D01*
X327945Y486320D01*
X327989Y486445D01*
X328029Y486571D01*
X328065Y486699D01*
X328098Y486827D01*
X328127Y486956D01*
X328152Y487087D01*
X328173Y487217D01*
X328191Y487349D01*
X328204Y487481D01*
X328214Y487613D01*
X328220Y487745D01*
X328222Y487878D01*
X307693Y483362D02*
X307575Y483364D01*
X307457Y483370D01*
X307339Y483379D01*
X307222Y483393D01*
X307105Y483410D01*
X306988Y483431D01*
X306873Y483456D01*
X306758Y483485D01*
X306644Y483518D01*
X306532Y483554D01*
X306421Y483594D01*
X306311Y483637D01*
X306202Y483684D01*
X306095Y483734D01*
X305990Y483789D01*
X305887Y483846D01*
X305786Y483907D01*
X305686Y483971D01*
X305589Y484038D01*
X305494Y484108D01*
X305402Y484182D01*
X305311Y484258D01*
X305224Y484338D01*
X305139Y484420D01*
X305057Y484505D01*
X304977Y484592D01*
X304901Y484683D01*
X304827Y484775D01*
X304757Y484870D01*
X304690Y484967D01*
X304626Y485067D01*
X304565Y485168D01*
X304508Y485271D01*
X304453Y485376D01*
X304403Y485483D01*
X304356Y485592D01*
X304313Y485702D01*
X304273Y485813D01*
X304237Y485925D01*
X304204Y486039D01*
X304175Y486154D01*
X304150Y486269D01*
X304129Y486386D01*
X304112Y486503D01*
X304098Y486620D01*
X304089Y486738D01*
X304083Y486856D01*
X304081Y486974D01*
X307693Y483362D02*
X307876Y483364D01*
X308058Y483371D01*
X308240Y483382D01*
X308422Y483397D01*
X308604Y483417D01*
X308785Y483441D01*
X308965Y483469D01*
X309145Y483501D01*
X309324Y483538D01*
X309501Y483579D01*
X309678Y483625D01*
X309854Y483674D01*
X310029Y483728D01*
X310202Y483786D01*
X310373Y483848D01*
X310544Y483914D01*
X310712Y483985D01*
X310879Y484059D01*
X311044Y484137D01*
X311207Y484219D01*
X311368Y484305D01*
X311527Y484395D01*
X311684Y484489D01*
X311838Y484586D01*
X311990Y484687D01*
X312140Y484792D01*
X312287Y484900D01*
X312431Y485011D01*
X312573Y485126D01*
X312712Y485245D01*
X312848Y485367D01*
X312981Y485492D01*
X313111Y485620D01*
X312660Y496006D02*
X312658Y496124D01*
X312652Y496242D01*
X312643Y496360D01*
X312629Y496477D01*
X312612Y496594D01*
X312591Y496711D01*
X312566Y496826D01*
X312537Y496941D01*
X312504Y497055D01*
X312468Y497167D01*
X312428Y497278D01*
X312385Y497388D01*
X312338Y497497D01*
X312288Y497604D01*
X312233Y497709D01*
X312176Y497812D01*
X312115Y497913D01*
X312051Y498013D01*
X311984Y498110D01*
X311914Y498205D01*
X311840Y498297D01*
X311764Y498388D01*
X311684Y498475D01*
X311602Y498560D01*
X311517Y498642D01*
X311430Y498722D01*
X311339Y498798D01*
X311247Y498872D01*
X311152Y498942D01*
X311055Y499009D01*
X310955Y499073D01*
X310854Y499134D01*
X310751Y499191D01*
X310646Y499246D01*
X310539Y499296D01*
X310430Y499343D01*
X310320Y499386D01*
X310209Y499426D01*
X310097Y499462D01*
X309983Y499495D01*
X309868Y499524D01*
X309753Y499549D01*
X309636Y499570D01*
X309519Y499587D01*
X309402Y499601D01*
X309284Y499610D01*
X309166Y499616D01*
X309048Y499618D01*
X308887Y499616D01*
X308725Y499610D01*
X308564Y499601D01*
X308403Y499587D01*
X308243Y499570D01*
X308083Y499549D01*
X307923Y499524D01*
X307764Y499495D01*
X307606Y499463D01*
X307449Y499427D01*
X307293Y499387D01*
X307137Y499343D01*
X306983Y499295D01*
X306830Y499244D01*
X306678Y499190D01*
X306527Y499131D01*
X306378Y499070D01*
X306231Y499004D01*
X306085Y498935D01*
X305940Y498863D01*
X305798Y498787D01*
X305657Y498708D01*
X305518Y498626D01*
X305382Y498540D01*
X305247Y498451D01*
X305114Y498359D01*
X304984Y498263D01*
X310854Y492845D02*
X310955Y492907D01*
X311055Y492972D01*
X311152Y493041D01*
X311247Y493113D01*
X311340Y493187D01*
X311430Y493265D01*
X311518Y493346D01*
X311603Y493429D01*
X311685Y493515D01*
X311764Y493604D01*
X311841Y493695D01*
X311914Y493789D01*
X311985Y493885D01*
X312052Y493983D01*
X312116Y494083D01*
X312177Y494186D01*
X312234Y494290D01*
X312288Y494396D01*
X312338Y494504D01*
X312385Y494613D01*
X312429Y494724D01*
X312469Y494836D01*
X312505Y494950D01*
X312537Y495064D01*
X312566Y495180D01*
X312591Y495296D01*
X312612Y495413D01*
X312629Y495531D01*
X312643Y495649D01*
X312652Y495768D01*
X312658Y495887D01*
X312660Y496006D01*
X305886Y490135D02*
X305785Y490073D01*
X305685Y490008D01*
X305588Y489939D01*
X305493Y489867D01*
X305400Y489793D01*
X305310Y489715D01*
X305222Y489634D01*
X305137Y489551D01*
X305055Y489465D01*
X304976Y489376D01*
X304899Y489285D01*
X304826Y489191D01*
X304755Y489095D01*
X304688Y488997D01*
X304624Y488897D01*
X304563Y488794D01*
X304506Y488690D01*
X304452Y488584D01*
X304402Y488476D01*
X304355Y488367D01*
X304311Y488256D01*
X304271Y488144D01*
X304235Y488030D01*
X304203Y487916D01*
X304174Y487800D01*
X304149Y487684D01*
X304128Y487567D01*
X304111Y487449D01*
X304097Y487331D01*
X304088Y487212D01*
X304082Y487093D01*
X304080Y486974D01*
X305887Y490135D02*
X310854Y492845D01*
X289144Y499618D02*
X289144Y483362D01*
X289144Y499618D02*
X284628Y499618D01*
X284497Y499616D01*
X284365Y499610D01*
X284234Y499601D01*
X284104Y499587D01*
X283973Y499570D01*
X283844Y499549D01*
X283715Y499525D01*
X283587Y499496D01*
X283459Y499464D01*
X283333Y499428D01*
X283208Y499389D01*
X283083Y499346D01*
X282961Y499299D01*
X282839Y499249D01*
X282719Y499195D01*
X282601Y499138D01*
X282485Y499077D01*
X282370Y499013D01*
X282257Y498946D01*
X282146Y498875D01*
X282038Y498801D01*
X281931Y498724D01*
X281827Y498644D01*
X281725Y498561D01*
X281626Y498476D01*
X281529Y498387D01*
X281435Y498295D01*
X281343Y498201D01*
X281254Y498104D01*
X281169Y498005D01*
X281086Y497903D01*
X281006Y497799D01*
X280929Y497692D01*
X280855Y497584D01*
X280784Y497473D01*
X280717Y497360D01*
X280653Y497245D01*
X280592Y497129D01*
X280535Y497011D01*
X280481Y496891D01*
X280431Y496769D01*
X280384Y496647D01*
X280341Y496522D01*
X280302Y496397D01*
X280266Y496271D01*
X280234Y496143D01*
X280205Y496015D01*
X280181Y495886D01*
X280160Y495757D01*
X280143Y495626D01*
X280129Y495496D01*
X280120Y495365D01*
X280114Y495233D01*
X280112Y495102D01*
X280113Y495102D02*
X280113Y487878D01*
X280112Y487878D02*
X280114Y487747D01*
X280120Y487615D01*
X280129Y487484D01*
X280143Y487354D01*
X280160Y487223D01*
X280181Y487094D01*
X280205Y486965D01*
X280234Y486837D01*
X280266Y486709D01*
X280302Y486583D01*
X280341Y486458D01*
X280384Y486333D01*
X280431Y486211D01*
X280481Y486089D01*
X280535Y485969D01*
X280592Y485851D01*
X280653Y485735D01*
X280717Y485620D01*
X280784Y485507D01*
X280855Y485396D01*
X280929Y485288D01*
X281006Y485181D01*
X281086Y485077D01*
X281169Y484975D01*
X281254Y484876D01*
X281343Y484779D01*
X281435Y484685D01*
X281529Y484593D01*
X281626Y484504D01*
X281725Y484419D01*
X281827Y484336D01*
X281931Y484256D01*
X282038Y484179D01*
X282146Y484105D01*
X282257Y484034D01*
X282370Y483967D01*
X282485Y483903D01*
X282601Y483842D01*
X282719Y483785D01*
X282839Y483731D01*
X282961Y483681D01*
X283083Y483634D01*
X283208Y483591D01*
X283333Y483552D01*
X283459Y483516D01*
X283587Y483484D01*
X283715Y483455D01*
X283844Y483431D01*
X283973Y483410D01*
X284104Y483393D01*
X284234Y483379D01*
X284365Y483370D01*
X284497Y483364D01*
X284628Y483362D01*
X289144Y483362D01*
X272441Y483362D02*
X265216Y483362D01*
X272441Y483362D02*
X272441Y499618D01*
X265216Y499618D01*
X267022Y492393D02*
X272441Y492393D01*
X250448Y499618D02*
X250448Y483362D01*
X245029Y490587D02*
X250448Y499618D01*
X245029Y490587D02*
X239610Y499618D01*
X239610Y483362D01*
X231799Y483362D02*
X224574Y483362D01*
X231799Y483362D02*
X231799Y499618D01*
X224574Y499618D01*
X226381Y492393D02*
X231799Y492393D01*
X219706Y483362D02*
X208869Y499618D01*
X219706Y499618D02*
X208869Y483362D01*
X201783Y483362D02*
X201783Y499618D01*
X203589Y483362D02*
X199976Y483362D01*
X199976Y499618D02*
X203589Y499618D01*
X190220Y483362D02*
X186608Y483362D01*
X190220Y483362D02*
X190338Y483364D01*
X190456Y483370D01*
X190574Y483379D01*
X190691Y483393D01*
X190808Y483410D01*
X190925Y483431D01*
X191040Y483456D01*
X191155Y483485D01*
X191269Y483518D01*
X191381Y483554D01*
X191492Y483594D01*
X191602Y483637D01*
X191711Y483684D01*
X191818Y483734D01*
X191923Y483789D01*
X192026Y483846D01*
X192127Y483907D01*
X192227Y483971D01*
X192324Y484038D01*
X192419Y484108D01*
X192511Y484182D01*
X192602Y484258D01*
X192689Y484338D01*
X192774Y484420D01*
X192856Y484505D01*
X192936Y484592D01*
X193012Y484683D01*
X193086Y484775D01*
X193156Y484870D01*
X193223Y484967D01*
X193287Y485067D01*
X193348Y485168D01*
X193405Y485271D01*
X193460Y485376D01*
X193510Y485483D01*
X193557Y485592D01*
X193600Y485702D01*
X193640Y485813D01*
X193676Y485925D01*
X193709Y486039D01*
X193738Y486154D01*
X193763Y486269D01*
X193784Y486386D01*
X193801Y486503D01*
X193815Y486620D01*
X193824Y486738D01*
X193830Y486856D01*
X193832Y486974D01*
X193833Y486974D02*
X193833Y496006D01*
X193832Y496006D02*
X193830Y496124D01*
X193824Y496242D01*
X193815Y496360D01*
X193801Y496477D01*
X193784Y496594D01*
X193763Y496711D01*
X193738Y496826D01*
X193709Y496941D01*
X193676Y497055D01*
X193640Y497167D01*
X193600Y497278D01*
X193557Y497388D01*
X193510Y497497D01*
X193460Y497604D01*
X193405Y497709D01*
X193348Y497812D01*
X193287Y497913D01*
X193223Y498013D01*
X193156Y498110D01*
X193086Y498205D01*
X193012Y498297D01*
X192936Y498388D01*
X192856Y498475D01*
X192774Y498560D01*
X192689Y498642D01*
X192602Y498722D01*
X192511Y498798D01*
X192419Y498872D01*
X192324Y498942D01*
X192227Y499009D01*
X192127Y499073D01*
X192026Y499134D01*
X191923Y499191D01*
X191818Y499246D01*
X191711Y499296D01*
X191602Y499343D01*
X191492Y499386D01*
X191381Y499426D01*
X191269Y499462D01*
X191155Y499495D01*
X191040Y499524D01*
X190925Y499549D01*
X190808Y499570D01*
X190691Y499587D01*
X190574Y499601D01*
X190456Y499610D01*
X190338Y499616D01*
X190220Y499618D01*
X186608Y499618D01*
X180767Y495102D02*
X180767Y487878D01*
X180768Y495102D02*
X180766Y495235D01*
X180760Y495367D01*
X180750Y495499D01*
X180737Y495631D01*
X180719Y495763D01*
X180698Y495893D01*
X180673Y496024D01*
X180644Y496153D01*
X180611Y496281D01*
X180575Y496409D01*
X180535Y496535D01*
X180491Y496660D01*
X180443Y496784D01*
X180392Y496906D01*
X180337Y497027D01*
X180279Y497146D01*
X180217Y497264D01*
X180152Y497379D01*
X180083Y497493D01*
X180012Y497604D01*
X179936Y497713D01*
X179858Y497820D01*
X179777Y497925D01*
X179692Y498027D01*
X179605Y498127D01*
X179515Y498224D01*
X179422Y498319D01*
X179326Y498410D01*
X179228Y498499D01*
X179127Y498585D01*
X179023Y498668D01*
X178917Y498748D01*
X178809Y498824D01*
X178699Y498898D01*
X178586Y498968D01*
X178472Y499035D01*
X178355Y499098D01*
X178237Y499158D01*
X178117Y499215D01*
X177995Y499268D01*
X177872Y499317D01*
X177748Y499363D01*
X177622Y499405D01*
X177495Y499443D01*
X177367Y499478D01*
X177238Y499509D01*
X177109Y499536D01*
X176978Y499559D01*
X176847Y499579D01*
X176715Y499594D01*
X176583Y499606D01*
X176451Y499614D01*
X176318Y499618D01*
X176186Y499618D01*
X176053Y499614D01*
X175921Y499606D01*
X175789Y499594D01*
X175657Y499579D01*
X175526Y499559D01*
X175395Y499536D01*
X175266Y499509D01*
X175137Y499478D01*
X175009Y499443D01*
X174882Y499405D01*
X174756Y499363D01*
X174632Y499317D01*
X174509Y499268D01*
X174387Y499215D01*
X174267Y499158D01*
X174149Y499098D01*
X174032Y499035D01*
X173918Y498968D01*
X173805Y498898D01*
X173695Y498824D01*
X173587Y498748D01*
X173481Y498668D01*
X173377Y498585D01*
X173276Y498499D01*
X173178Y498410D01*
X173082Y498319D01*
X172989Y498224D01*
X172899Y498127D01*
X172812Y498027D01*
X172727Y497925D01*
X172646Y497820D01*
X172568Y497713D01*
X172492Y497604D01*
X172421Y497493D01*
X172352Y497379D01*
X172287Y497264D01*
X172225Y497146D01*
X172167Y497027D01*
X172112Y496906D01*
X172061Y496784D01*
X172013Y496660D01*
X171969Y496535D01*
X171929Y496409D01*
X171893Y496281D01*
X171860Y496153D01*
X171831Y496024D01*
X171806Y495893D01*
X171785Y495763D01*
X171767Y495631D01*
X171754Y495499D01*
X171744Y495367D01*
X171738Y495235D01*
X171736Y495102D01*
X171736Y487878D01*
X171738Y487745D01*
X171744Y487613D01*
X171754Y487481D01*
X171767Y487349D01*
X171785Y487217D01*
X171806Y487087D01*
X171831Y486956D01*
X171860Y486827D01*
X171893Y486699D01*
X171929Y486571D01*
X171969Y486445D01*
X172013Y486320D01*
X172061Y486196D01*
X172112Y486074D01*
X172167Y485953D01*
X172225Y485834D01*
X172287Y485716D01*
X172352Y485601D01*
X172421Y485487D01*
X172492Y485376D01*
X172568Y485267D01*
X172646Y485160D01*
X172727Y485055D01*
X172812Y484953D01*
X172899Y484853D01*
X172989Y484756D01*
X173082Y484661D01*
X173178Y484570D01*
X173276Y484481D01*
X173377Y484395D01*
X173481Y484312D01*
X173587Y484232D01*
X173695Y484156D01*
X173805Y484082D01*
X173918Y484012D01*
X174032Y483945D01*
X174149Y483882D01*
X174267Y483822D01*
X174387Y483765D01*
X174509Y483712D01*
X174632Y483663D01*
X174756Y483617D01*
X174882Y483575D01*
X175009Y483537D01*
X175137Y483502D01*
X175266Y483471D01*
X175395Y483444D01*
X175526Y483421D01*
X175657Y483401D01*
X175789Y483386D01*
X175921Y483374D01*
X176053Y483366D01*
X176186Y483362D01*
X176318Y483362D01*
X176451Y483366D01*
X176583Y483374D01*
X176715Y483386D01*
X176847Y483401D01*
X176978Y483421D01*
X177109Y483444D01*
X177238Y483471D01*
X177367Y483502D01*
X177495Y483537D01*
X177622Y483575D01*
X177748Y483617D01*
X177872Y483663D01*
X177995Y483712D01*
X178117Y483765D01*
X178237Y483822D01*
X178355Y483882D01*
X178472Y483945D01*
X178586Y484012D01*
X178699Y484082D01*
X178809Y484156D01*
X178917Y484232D01*
X179023Y484312D01*
X179127Y484395D01*
X179228Y484481D01*
X179326Y484570D01*
X179422Y484661D01*
X179515Y484756D01*
X179605Y484853D01*
X179692Y484953D01*
X179777Y485055D01*
X179858Y485160D01*
X179936Y485267D01*
X180012Y485376D01*
X180083Y485487D01*
X180152Y485601D01*
X180217Y485716D01*
X180279Y485834D01*
X180337Y485953D01*
X180392Y486074D01*
X180443Y486196D01*
X180491Y486320D01*
X180535Y486445D01*
X180575Y486571D01*
X180611Y486699D01*
X180644Y486827D01*
X180673Y486956D01*
X180698Y487087D01*
X180719Y487217D01*
X180737Y487349D01*
X180750Y487481D01*
X180760Y487613D01*
X180766Y487745D01*
X180768Y487878D01*
X614313Y457962D02*
X621538Y457962D01*
X621538Y474218D01*
X614313Y474218D01*
X616119Y466993D02*
X621538Y466993D01*
X608021Y474218D02*
X608021Y457962D01*
X608021Y474218D02*
X603505Y474218D01*
X603374Y474216D01*
X603242Y474210D01*
X603111Y474201D01*
X602981Y474187D01*
X602850Y474170D01*
X602721Y474149D01*
X602592Y474125D01*
X602464Y474096D01*
X602336Y474064D01*
X602210Y474028D01*
X602085Y473989D01*
X601960Y473946D01*
X601838Y473899D01*
X601716Y473849D01*
X601596Y473795D01*
X601478Y473738D01*
X601362Y473677D01*
X601247Y473613D01*
X601134Y473546D01*
X601023Y473475D01*
X600915Y473401D01*
X600808Y473324D01*
X600704Y473244D01*
X600602Y473161D01*
X600503Y473076D01*
X600406Y472987D01*
X600312Y472895D01*
X600220Y472801D01*
X600131Y472704D01*
X600046Y472605D01*
X599963Y472503D01*
X599883Y472399D01*
X599806Y472292D01*
X599732Y472184D01*
X599661Y472073D01*
X599594Y471960D01*
X599530Y471845D01*
X599469Y471729D01*
X599412Y471611D01*
X599358Y471491D01*
X599308Y471369D01*
X599261Y471247D01*
X599218Y471122D01*
X599179Y470997D01*
X599143Y470871D01*
X599111Y470743D01*
X599082Y470615D01*
X599058Y470486D01*
X599037Y470357D01*
X599020Y470226D01*
X599006Y470096D01*
X598997Y469965D01*
X598991Y469833D01*
X598989Y469702D01*
X598990Y469702D02*
X598990Y462478D01*
X598989Y462478D02*
X598991Y462347D01*
X598997Y462215D01*
X599006Y462084D01*
X599020Y461954D01*
X599037Y461823D01*
X599058Y461694D01*
X599082Y461565D01*
X599111Y461437D01*
X599143Y461309D01*
X599179Y461183D01*
X599218Y461058D01*
X599261Y460933D01*
X599308Y460811D01*
X599358Y460689D01*
X599412Y460569D01*
X599469Y460451D01*
X599530Y460335D01*
X599594Y460220D01*
X599661Y460107D01*
X599732Y459996D01*
X599806Y459888D01*
X599883Y459781D01*
X599963Y459677D01*
X600046Y459575D01*
X600131Y459476D01*
X600220Y459379D01*
X600312Y459285D01*
X600406Y459193D01*
X600503Y459104D01*
X600602Y459019D01*
X600704Y458936D01*
X600808Y458856D01*
X600915Y458779D01*
X601023Y458705D01*
X601134Y458634D01*
X601247Y458567D01*
X601362Y458503D01*
X601478Y458442D01*
X601596Y458385D01*
X601716Y458331D01*
X601838Y458281D01*
X601960Y458234D01*
X602085Y458191D01*
X602210Y458152D01*
X602336Y458116D01*
X602464Y458084D01*
X602592Y458055D01*
X602721Y458031D01*
X602850Y458010D01*
X602981Y457993D01*
X603111Y457979D01*
X603242Y457970D01*
X603374Y457964D01*
X603505Y457962D01*
X608021Y457962D01*
X587353Y457962D02*
X592772Y474218D01*
X581934Y474218D02*
X587353Y457962D01*
M02*
