G04 EAGLE Gerber X2 export*
%TF.Part,Single*%
%TF.FileFunction,Soldermask,Bot,1*%
%TF.FilePolarity,Negative*%
%TF.GenerationSoftware,Autodesk,EAGLE,8.7.0*%
%TF.CreationDate,2018-10-16T22:36:03Z*%
G75*
%MOMM*%
%FSLAX34Y34*%
%LPD*%
%AMOC8*
5,1,8,0,0,1.08239X$1,22.5*%
G01*
%ADD10C,4.203191*%
%ADD11P,2.309387X8X112.500000*%
%ADD12C,1.993900*%
%ADD13P,2.144431X8X292.500000*%
%ADD14C,1.981200*%
%ADD15P,1.951982X8X292.500000*%
%ADD16P,2.144431X8X112.500000*%
%ADD17P,1.951982X8X112.500000*%
%ADD18C,1.524000*%
%ADD19C,2.184400*%
%ADD20P,2.034460X8X22.500000*%
%ADD21R,1.711200X1.711200*%
%ADD22C,1.711200*%
%ADD23C,1.854200*%
%ADD24P,1.649562X8X112.500000*%
%ADD25P,1.649562X8X292.500000*%
%ADD26P,1.649562X8X22.500000*%
%ADD27C,0.959600*%


D10*
X38100Y38100D03*
X54610Y615950D03*
X647700Y38100D03*
X651510Y501650D03*
D11*
X660400Y215900D03*
X660400Y165100D03*
D12*
X59754Y253600D02*
X41847Y253600D01*
X41847Y203600D02*
X59754Y203600D01*
D13*
X152400Y533400D03*
D14*
X152400Y558800D03*
D15*
X203200Y558800D03*
X203200Y533400D03*
D16*
X152400Y469900D03*
D14*
X152400Y444500D03*
D17*
X203200Y444500D03*
X203200Y469900D03*
D12*
X59754Y355200D02*
X41847Y355200D01*
X41847Y305200D02*
X59754Y305200D01*
D18*
X399796Y342900D02*
X413004Y342900D01*
X336804Y342900D02*
X323596Y342900D01*
D11*
X660400Y114300D03*
D19*
X374650Y225044D02*
X374650Y244856D01*
X314960Y224536D02*
X314960Y204724D01*
X434340Y204724D02*
X434340Y224536D01*
X434340Y102616D02*
X434340Y82804D01*
X314960Y82804D02*
X314960Y102616D01*
D20*
X482600Y190500D03*
X508000Y190500D03*
X482600Y266700D03*
X508000Y266700D03*
X482600Y342900D03*
X508000Y342900D03*
D12*
X626047Y279800D02*
X643954Y279800D01*
X643954Y329800D02*
X626047Y329800D01*
D21*
X279400Y393700D03*
D22*
X304800Y393700D03*
X330200Y393700D03*
X355600Y393700D03*
X381000Y393700D03*
X406400Y393700D03*
X431800Y393700D03*
X457200Y393700D03*
X482600Y393700D03*
X508000Y393700D03*
X533400Y393700D03*
X558800Y393700D03*
X279400Y546100D03*
X304800Y546100D03*
X330200Y546100D03*
X355600Y546100D03*
X381000Y546100D03*
X406400Y546100D03*
X457200Y546100D03*
X482600Y546100D03*
X533400Y546100D03*
X558800Y546100D03*
X508000Y546100D03*
X431800Y546100D03*
X584200Y393700D03*
X609600Y393700D03*
X635000Y393700D03*
X584200Y546100D03*
X609600Y546100D03*
X635000Y546100D03*
D23*
X660400Y393700D03*
X660400Y546100D03*
X254000Y546100D03*
X254000Y393700D03*
D21*
X254000Y495300D03*
D22*
X279400Y495300D03*
X254000Y469900D03*
X279400Y469900D03*
X254000Y444500D03*
X279400Y444500D03*
D18*
X152400Y152400D02*
X139192Y152400D01*
X139192Y127000D02*
X152400Y127000D01*
X228600Y127000D02*
X241808Y127000D01*
X241808Y152400D02*
X228600Y152400D01*
X152400Y101600D02*
X139192Y101600D01*
X228600Y101600D02*
X241808Y101600D01*
X152400Y254000D02*
X139192Y254000D01*
X139192Y228600D02*
X152400Y228600D01*
X228600Y228600D02*
X241808Y228600D01*
X241808Y254000D02*
X228600Y254000D01*
X152400Y203200D02*
X139192Y203200D01*
X228600Y203200D02*
X241808Y203200D01*
X152400Y355600D02*
X139192Y355600D01*
X139192Y330200D02*
X152400Y330200D01*
X228600Y330200D02*
X241808Y330200D01*
X241808Y355600D02*
X228600Y355600D01*
X152400Y304800D02*
X139192Y304800D01*
X228600Y304800D02*
X241808Y304800D01*
D24*
X118110Y88900D03*
X118110Y165100D03*
X596900Y152400D03*
X596900Y228600D03*
X266700Y38100D03*
X266700Y114300D03*
X116840Y191770D03*
X116840Y267970D03*
X266700Y139700D03*
X266700Y215900D03*
X115570Y292100D03*
X115570Y368300D03*
X266700Y241300D03*
X266700Y317500D03*
D25*
X558800Y355600D03*
X558800Y279400D03*
D24*
X622300Y152400D03*
X622300Y228600D03*
X571500Y152400D03*
X571500Y228600D03*
D12*
X59754Y152000D02*
X41847Y152000D01*
X41847Y102000D02*
X59754Y102000D01*
D26*
X317500Y285750D03*
X342900Y285750D03*
X342900Y311150D03*
D18*
X475996Y114300D02*
X489204Y114300D01*
X489204Y88900D02*
X475996Y88900D01*
X552196Y88900D02*
X565404Y88900D01*
X565404Y114300D02*
X552196Y114300D01*
X489204Y63500D02*
X475996Y63500D01*
X475996Y38100D02*
X489204Y38100D01*
X552196Y63500D02*
X565404Y63500D01*
X565404Y38100D02*
X552196Y38100D01*
D12*
X59754Y557600D02*
X41847Y557600D01*
X41847Y507600D02*
X59754Y507600D01*
X59754Y457600D02*
X41847Y457600D01*
X41847Y407600D02*
X59754Y407600D01*
D27*
X307340Y327660D03*
X88900Y342900D03*
X285750Y285750D03*
X533400Y368300D03*
X660400Y368300D03*
X317500Y508000D03*
X355600Y355600D03*
X457200Y317500D03*
X457200Y152400D03*
X457200Y127000D03*
X508000Y101600D03*
X447040Y293370D03*
X368300Y368300D03*
X533400Y317500D03*
X393700Y266700D03*
X558800Y304800D03*
X495300Y292100D03*
M02*
